<?xml version="1.0" encoding="UTF-8"?> <svg xmlns="http://www.w3.org/2000/svg" width="80" height="80" viewBox="0 0 80 80" fill="none"><path d="M49.9833 30.75C50.3 31.0667 50.5 31.4667 50.7 31.85C50.9 32.2333 50.7833 32.6833 50.8666 33.1167C50.95 33.55 51.2166 33.95 51.1333 34.3833C51.05 34.8167 50.95 35.2333 50.75 35.6333C50.55 36.0333 50.1 36.1833 49.7833 36.5C49.3 36.9833 49.6333 37.3167 49.1666 37.7833C48.7 38.25 48.4333 38 47.95 38.4667C47.4666 38.9333 47.6666 39.1333 47.2 39.6167C46.7333 40.1 46.6 39.9667 46.1166 40.45C45.6333 40.9333 45.7 40.9833 45.2166 41.4667C44.7333 41.95 44.5333 41.7333 44.05 42.2167C43.5667 42.7 43.9666 43.0833 43.4833 43.5667C43 44.05 42.65 43.7 42.1833 44.1667C41.7166 44.6333 41.8833 44.8333 41.4166 45.3167C40.95 45.8 40.9166 45.7667 40.4333 46.25C39.95 46.7333 40.0833 46.8667 39.6 47.35C39.1166 47.8333 39 47.7167 38.5333 48.2C38.0667 48.6833 37.9 48.5333 37.4167 49.0167C36.9333 49.5 36.8666 49.4333 36.3833 49.9167C35.9833 50.3167 35.6 50.5667 35.1166 50.7667C34.6333 50.9667 34.1666 51.5167 33.6166 51.5167C33.0666 51.5167 32.5666 51.1167 32.0666 50.9C31.5666 50.6833 31.0833 50.5 30.6833 50.1C30.2833 49.7 30.0666 49.2167 29.8666 48.7167C29.6666 48.2167 29.4 47.7167 29.4 47.15C29.4 46.5833 29.2833 45.9333 29.5 45.4333C29.7167 44.9333 30.2167 44.5167 30.6166 44.1333C31.1 43.65 31.2833 43.85 31.7666 43.3667C32.25 42.8833 32.2833 42.9333 32.7666 42.45C33.25 41.9667 32.8666 41.6 33.35 41.1333C33.8333 40.6667 33.8333 40.6667 34.3166 40.1833C34.8 39.7 34.8333 39.75 35.3167 39.2667C35.8 38.7833 35.9166 38.9167 36.4 38.4333C36.8833 37.95 37.0166 38.1 37.5 37.6167C37.9833 37.1333 38 37.1667 38.4666 36.6833C38.9333 36.2 38.8833 36.1333 39.35 35.65C39.8167 35.1667 39.9667 35.3 40.4333 34.8333C40.9 34.3667 40.9166 34.35 41.4 33.8833C41.8833 33.4167 41.85 33.3833 42.3333 32.9C42.8166 32.4167 42.5833 32.1833 43.0667 31.7C43.55 31.2167 43.6166 31.2833 44.1 30.8C44.4166 30.4833 44.8833 30.4667 45.2666 30.2667C45.65 30.0667 45.9833 29.8333 46.4 29.7667C46.8167 29.7 47.3 29.2667 47.7333 29.3333C48.1666 29.4 48.4 30.0667 48.8 30.2667C49.2 30.4667 49.7 30.4333 50.0166 30.75H49.9833ZM42.4 52.5833C41.9333 53.05 41.8833 53 41.4166 53.4833C40.95 53.9667 40.7833 53.7833 40.3167 54.25C39.85 54.7167 40.05 54.9167 39.5666 55.3833C39.0833 55.85 39.1166 55.8667 38.6333 56.3333C38.15 56.8 37.9666 56.6 37.4833 57.0833C37 57.5667 37.35 57.8833 36.8666 58.3667C36.3833 58.85 36.1333 58.5833 35.65 59.05C35.1666 59.5167 35.3666 59.7167 34.9 60.2C34.5833 60.5167 34.1333 60.6667 33.8 60.9333C33.4667 61.2 33.1333 61.5167 32.7666 61.7333C32.4 61.95 31.8833 61.8667 31.4666 62.0333C31.05 62.2 30.8166 62.8667 30.4 62.9667C29.9833 63.0667 29.45 62.6833 29.0166 62.7333C28.5833 62.7833 28.1833 63.0833 27.7333 63.0833C27.2833 63.0833 26.85 63.0333 26.4166 62.9667C25.9833 62.9 25.5 63 25.0833 62.9C24.6667 62.8 24.2833 62.5 23.8666 62.3167C23.45 62.1333 23.1666 61.7667 22.8 61.55C22.4333 61.3333 22.1333 61.0333 21.7833 60.7667C21.4333 60.5 21.1333 60.2333 20.8166 59.9167C20.5 59.6 19.8833 59.5833 19.6167 59.2333C19.35 58.8833 19.3666 58.35 19.1666 57.9667C18.9667 57.5833 18.6833 57.2333 18.5166 56.8333C18.35 56.4333 18.3167 55.9833 18.2167 55.5667C18.1167 55.15 17.8833 54.75 17.8166 54.3167C17.75 53.8833 17.5 53.45 17.5 53C17.5 52.55 17.7333 52.1167 17.7833 51.6833C17.8333 51.25 18.1833 50.8833 18.2833 50.45C18.3833 50.0167 18.5666 49.65 18.7333 49.25C18.9 48.85 18.6 48.2333 18.8167 47.85C19.0333 47.4667 19.3 47.0833 19.55 46.7333C19.8 46.3833 20.1666 46.0667 20.4667 45.75C20.9333 45.2833 21.0667 45.4167 21.5333 44.9333C22 44.45 22.15 44.6167 22.6166 44.15C23.0833 43.6833 23.1166 43.7 23.5833 43.2333C24.05 42.7667 23.9833 42.7 24.45 42.2333C24.9166 41.7667 25.05 41.9 25.5333 41.4167C26.0166 40.9333 26.0167 40.95 26.4833 40.4833C26.95 40.0167 26.9333 39.9833 27.4 39.5C27.8666 39.0167 27.6333 38.7833 28.1166 38.3167C28.4333 38 28.75 37.7 28.95 37.3167C29.15 36.9333 29.55 36.5333 29.6166 36.1C29.6833 35.6667 29.5667 35.15 29.5 34.7167C29.4333 34.2833 28.9 34.0167 28.7 33.6167C28.5 33.2167 28.7 32.55 28.3833 32.2333C28.0667 31.9167 27.6166 31.6333 27.2333 31.4333C26.85 31.2333 26.2833 31.4333 25.85 31.3667C25.4166 31.3 24.9667 31.0667 24.5333 31.1333C24.1 31.2 23.8333 31.7167 23.4333 31.9167C23.0333 32.1167 22.7667 32.3167 22.45 32.6333C21.9833 33.1 21.6333 32.75 21.15 33.2167C20.6666 33.6833 20.65 33.65 20.1833 34.1167C19.7166 34.5833 19.95 34.8167 19.4667 35.2833C18.9833 35.75 19.0666 35.8333 18.6 36.3C18.1333 36.7667 17.9 36.55 17.4333 37.0167C16.9667 37.4833 17.1833 37.7167 16.7166 38.1833C16.25 38.65 16.2167 38.6333 15.75 39.1C15.2833 39.5667 15.2 39.5 14.7167 39.9667C14.4 40.2833 14.3 40.7667 14.0166 41.1C13.7333 41.4333 13.2667 41.6 13 41.95C12.7333 42.3 12.3333 42.55 12.0833 42.9167C11.8333 43.2833 11.9833 43.8833 11.7833 44.2667C11.5833 44.65 11.25 44.9667 11.0667 45.3667C10.8833 45.7667 10.6833 46.15 10.5167 46.55C10.35 46.95 10.2833 47.3833 10.1667 47.8167C10.05 48.25 9.68332 48.6 9.59998 49.0333C9.51665 49.4667 9.29998 49.8833 9.24998 50.3167C9.19998 50.75 9.46665 51.2333 9.43332 51.6667C9.39998 52.1 9.06665 52.5333 9.06665 52.9833C9.06665 53.4333 9.23332 53.8667 9.26665 54.3C9.29998 54.7333 9.51665 55.1667 9.56665 55.5833C9.61665 56 9.64998 56.4667 9.73332 56.8833C9.81665 57.3 10.1333 57.6833 10.2666 58.1C10.4 58.5167 10.2 59.0333 10.35 59.45C10.5 59.8667 10.6166 60.3 10.7833 60.7C10.95 61.1 11.45 61.35 11.6667 61.7333C11.8833 62.1167 11.9667 62.5667 12.2167 62.9333C12.4667 63.3 12.6167 63.7167 12.8833 64.0833C13.15 64.45 13.3666 64.8333 13.65 65.1667C13.9333 65.5 14.2333 65.85 14.5333 66.15C14.85 66.4667 15.2333 66.7167 15.55 67C15.8667 67.2833 16.1333 67.7 16.4833 67.9667C16.8333 68.2333 17.4667 68.1167 17.8333 68.35C18.2 68.5833 18.6 68.7667 18.9833 68.9833C19.3667 69.2 19.6167 69.6833 20.0167 69.85C20.4167 70.0167 20.8166 70.2333 21.2333 70.4C21.65 70.5667 22.05 70.7833 22.4666 70.9C22.8833 71.0167 23.4 70.8333 23.8167 70.9333C24.2333 71.0333 24.6667 71.15 25.1 71.2167C25.5333 71.2833 25.9667 71.35 26.4 71.3833C26.8333 71.4167 27.2833 71.3833 27.7166 71.3833C28.15 71.3833 28.5833 71.25 29.0166 71.2167C29.45 71.1833 29.9333 71.5167 30.3666 71.45C30.8 71.3833 31.2166 71.1333 31.6333 71.05C32.05 70.9667 32.55 71.05 32.9667 70.9333C33.3833 70.8167 33.7666 70.5167 34.1833 70.3667C34.6 70.2167 34.8833 69.7833 35.2833 69.6C35.6833 69.4167 36.2666 69.6 36.65 69.3833C37.0333 69.1667 37.2833 68.7167 37.65 68.4667C38.0166 68.2167 38.5333 68.2 38.8833 67.9333C39.2333 67.6667 39.2166 66.95 39.55 66.6667C39.8833 66.3833 40.5833 66.4833 40.8833 66.1833C41.35 65.7167 41.2166 65.5667 41.6833 65.1C42.15 64.6333 42.2333 64.7167 42.7166 64.25C43.2 63.7833 43.0833 63.6833 43.5666 63.2167C44.05 62.75 43.9833 62.6833 44.45 62.2167C44.9166 61.75 45.1333 61.9667 45.6166 61.4833C46.1 61 46.1166 61.0333 46.5833 60.55C47.05 60.0667 46.95 59.9667 47.4166 59.5C47.8833 59.0333 47.7166 58.85 48.1833 58.3667C48.5 58.05 48.65 57.6833 48.8333 57.3C49.0166 56.9167 49.1333 56.55 49.2 56.1167C49.2667 55.6833 49.2166 55.3167 49.15 54.8833C49.0833 54.45 49.2 54 49 53.6167C48.8 53.2333 48.7833 52.65 48.4666 52.3333C48.15 52.0167 47.6833 51.7667 47.3 51.5833C46.9166 51.4 46.4166 51.3 45.9833 51.2333C45.55 51.1667 45.1 51.3833 44.6666 51.45C44.2333 51.5167 43.6666 51.2833 43.2666 51.5C42.8666 51.7167 42.7 52.25 42.3666 52.5667L42.4 52.5833ZM65.8667 14.8667C65.55 14.55 65.2833 14.2 64.95 13.9167C64.6167 13.6333 64.4166 13.15 64.0667 12.9C63.7166 12.65 63.1833 12.6 62.8167 12.3667C62.45 12.1333 62.0666 11.9167 61.6833 11.7167C61.3 11.5167 61.0333 11.05 60.6333 10.8667C60.2333 10.6833 59.65 10.95 59.2333 10.8C58.8167 10.65 58.5167 10.1667 58.1 10.0333C57.6833 9.9 57.1833 10.0667 56.75 9.98333C56.3166 9.9 55.9166 9.63333 55.4833 9.58333C55.05 9.53333 54.6 9.56667 54.1666 9.53333C53.7333 9.5 53.3 9.18333 52.85 9.18333C52.4 9.18333 51.9833 9.75 51.55 9.78333C51.1166 9.81667 50.6166 9.36667 50.2 9.43333C49.7833 9.5 49.3666 9.83333 48.95 9.91667C48.5333 10 48.0833 10.0833 47.6666 10.2167C47.25 10.35 46.9 10.65 46.4833 10.8C46.0666 10.95 45.6166 10.9667 45.2166 11.15C44.8166 11.3333 44.3167 11.3333 43.9333 11.55C43.55 11.7667 43.1166 11.9167 42.75 12.15C42.3833 12.3833 42 12.65 41.65 12.9167C41.3 13.1833 41.25 13.8167 40.9166 14.1C40.5833 14.3833 40.0666 14.4667 39.75 14.7667C39.2833 15.2333 39.35 15.3167 38.8833 15.7833C38.4166 16.25 38.35 16.1833 37.8833 16.65C37.4166 17.1167 37.5166 17.2333 37.05 17.7C36.5833 18.1667 36.75 18.3333 36.2833 18.8167C35.8167 19.3 35.6667 19.15 35.2 19.6167C34.7333 20.0833 34.5333 19.9 34.0667 20.3667C33.6 20.8333 33.55 20.8 33.0833 21.2667C32.6166 21.7333 32.9833 22.1167 32.5 22.5833C32.1 22.9833 31.85 23.35 31.6333 23.85C31.4166 24.35 31.2833 24.8 31.2833 25.35C31.2833 25.9 31.2 26.45 31.4166 26.95C31.6333 27.45 31.7833 28.05 32.1833 28.45C32.5 28.7667 32.9 29.0833 33.2666 29.2833C33.6333 29.4833 34.1666 29.55 34.5833 29.6167C35 29.6833 35.5166 29.8667 35.95 29.8C36.3833 29.7333 36.9 29.5667 37.2833 29.3667C37.6667 29.1667 38.0833 28.8333 38.4 28.5167C38.8666 28.05 38.6333 27.8 39.1 27.3333C39.5666 26.8667 39.6333 26.9333 40.1 26.45C40.5666 25.9667 40.75 26.1667 41.2333 25.7C41.7166 25.2333 41.6166 25.15 42.0833 24.6667C42.55 24.1833 42.25 23.8833 42.7166 23.4167C43.1833 22.95 43.5833 23.35 44.0667 22.8667C44.55 22.3833 44.5166 22.3667 45 21.9C45.4833 21.4333 45.2166 21.1667 45.6833 20.7C46 20.3833 46.4833 20.2667 46.8167 20C47.15 19.7333 47.3167 19.1333 47.6833 18.9167C48.05 18.7 48.4833 18.4833 48.9 18.3167C49.3167 18.15 49.8833 18.4833 50.3167 18.3667C50.75 18.25 51.15 18.2167 51.5833 18.1667C52.0167 18.1167 52.4166 17.7667 52.8666 17.7667C53.3166 17.7667 53.7666 17.6833 54.2 17.75C54.6333 17.8167 55 18.2167 55.4333 18.3167C55.8666 18.4167 56.3833 18.2667 56.7833 18.4333C57.1833 18.6 57.5833 18.8333 57.9666 19.05C58.35 19.2667 58.65 19.6167 59 19.8833C59.35 20.15 59.85 20.2667 60.1666 20.5667C60.4833 20.8833 60.5833 21.4 60.85 21.7333C61.1166 22.0667 61.2 22.55 61.4166 22.9167C61.6333 23.2833 62.2166 23.5 62.3833 23.9167C62.55 24.3333 62.55 24.8 62.6666 25.2333C62.7833 25.6667 62.8167 26.1 62.8833 26.55C62.95 27 63.0333 27.4333 63.0333 27.8667C63.0333 28.3167 62.75 28.7333 62.7 29.1667C62.65 29.6 62.4333 29.9833 62.3333 30.4C62.2333 30.8167 62.4 31.3333 62.2333 31.7333C62.0667 32.1333 61.5833 32.3833 61.3666 32.7667C61.15 33.15 61.0333 33.5667 60.7666 33.9167C60.5 34.2667 60.3333 34.7 60.0333 35.0167C59.5667 35.4833 59.5166 35.45 59.05 35.9167C58.5833 36.3833 58.7333 36.5333 58.2666 37C57.8 37.4667 57.55 37.2333 57.0833 37.7C56.6166 38.1667 56.5666 38.1167 56.1 38.5833C55.6333 39.05 55.85 39.2833 55.3833 39.75C54.9166 40.2167 54.8 40.1167 54.3333 40.5833C53.8666 41.05 53.7833 40.9833 53.3166 41.45C52.85 41.9167 52.7833 41.8667 52.3 42.3333C51.9833 42.65 51.6666 43.05 51.4666 43.4333C51.2666 43.8167 51.1833 44.3333 51.1166 44.7667C51.05 45.2 50.9 45.7167 50.9666 46.15C51.0333 46.5833 51.6 46.8833 51.8 47.2833C52 47.6833 52.25 47.95 52.5833 48.2667C52.9833 48.6667 53.25 49.2167 53.75 49.4333C54.25 49.65 54.85 49.8 55.4 49.8C55.95 49.8 56.6 49.7667 57.1 49.55C57.6 49.3333 57.9333 48.7667 58.3333 48.3667C58.8 47.9 58.85 47.9333 59.3167 47.4667C59.7833 47 59.8 47.0167 60.2666 46.55C60.7333 46.0833 60.7 46.05 61.1666 45.5667C61.6333 45.0833 61.55 45.0167 62.0333 44.55C62.5167 44.0833 62.7667 44.35 63.25 43.8667C63.7333 43.3833 63.6 43.2667 64.0667 42.8C64.5333 42.3333 64.7 42.4833 65.1666 42C65.6333 41.5167 65.5333 41.4167 66 40.9333C66.3167 40.6167 66.4 40.1167 66.7 39.7833C67 39.45 67.5833 39.3667 67.85 39.0167C68.1166 38.6667 68.15 38.15 68.3833 37.7833C68.6166 37.4167 69.0833 37.1667 69.3 36.7833C69.5167 36.4 69.2 35.75 69.3666 35.35C69.5333 34.95 70.2333 34.7667 70.3833 34.35C70.5333 33.9333 70.4833 33.45 70.6 33.0333C70.7167 32.6167 70.95 32.2167 71.05 31.7833C71.15 31.35 71.0833 30.9 71.15 30.4667C71.2166 30.0333 71.1833 29.5833 71.2167 29.15C71.25 28.7167 71.5667 28.2833 71.5667 27.8333C71.5667 27.4 71.5667 26.9333 71.55 26.5C71.5333 26.0667 71.3167 25.6333 71.25 25.2C71.1833 24.7667 70.8666 24.3833 70.7667 23.95C70.6666 23.5167 70.4666 23.1333 70.35 22.7167C70.2333 22.3 70.0833 21.9 69.9333 21.4833C69.7833 21.0667 69.5833 20.7 69.4 20.3C69.2167 19.9 69.25 19.4 69.0333 19.0167C68.8166 18.6333 68.8667 18.0833 68.6333 17.7167C68.4 17.35 68.0667 17.0167 67.8167 16.6667C67.5667 16.3167 67.2167 16.0167 66.9333 15.6833C66.65 15.35 66.2167 15.15 65.9 14.8333L65.8667 14.8667Z" fill="#F36600"></path><path d="M30.2667 72.7333C29.8834 72.7333 29.5667 72.6333 29.3167 72.5667C29.2334 72.5333 29.1501 72.5 29.0667 72.5C28.9667 72.5 28.8167 72.5333 28.6834 72.5667C28.3667 72.6167 28.05 72.6667 27.7334 72.6667H27.3C26.9667 72.6833 26.6501 72.7 26.3334 72.6667C25.9334 72.6333 25.5334 72.5833 25.1167 72.5167L24.9334 72.4833C24.6167 72.4333 24.3001 72.3667 23.9834 72.2833L23.5667 72.1833C23.4834 72.1833 23.3834 72.1833 23.2834 72.1833C22.9834 72.2167 22.5667 72.25 22.1167 72.1167C21.8167 72.0333 21.5167 71.9 21.2167 71.7667C21.0834 71.7 20.9334 71.6333 20.8 71.5833C20.4834 71.4667 20.1667 71.3167 19.85 71.1667L19.5 71C19.0667 70.8 18.7834 70.5 18.5667 70.2667C18.5001 70.2 18.4501 70.1167 18.3667 70.0667L18.0167 69.8833C17.7334 69.7333 17.4334 69.5833 17.1667 69.4C17.1834 69.4333 17.1167 69.4167 17.0334 69.4C16.7001 69.35 16.2 69.2833 15.75 68.95C15.45 68.7333 15.2334 68.4667 15.0334 68.25C14.9334 68.1333 14.85 68.0333 14.7334 67.9333C14.6167 67.8333 14.5 67.7333 14.3834 67.65C14.1334 67.45 13.8834 67.25 13.65 67.0333C13.3834 66.7667 13.1167 66.4667 12.8667 66.1833L12.7 65.9833C12.4834 65.75 12.3167 65.4667 12.1334 65.2C12.05 65.0667 11.9667 64.9333 11.8834 64.8167C11.7 64.5667 11.5334 64.2833 11.3834 64C11.3167 63.8667 11.25 63.7333 11.1667 63.6C10.9667 63.2833 10.85 62.9667 10.75 62.7167C10.7 62.5833 10.65 62.45 10.5834 62.3333C10.55 62.2833 10.4667 62.2167 10.4 62.15C10.1667 61.9333 9.86672 61.65 9.66672 61.2167C9.53338 60.9333 9.43338 60.6167 9.33338 60.3167C9.28338 60.1667 9.25005 60.0333 9.18338 59.8833C9.01672 59.4333 9.03338 59 9.05005 58.6833C9.05005 58.6 9.06672 58.5 9.05005 58.4167C9.05005 58.3833 8.96672 58.25 8.90005 58.1333C8.76672 57.8833 8.58338 57.55 8.50005 57.15C8.43338 56.8333 8.40005 56.5167 8.36672 56.2C8.36672 56.05 8.33338 55.9 8.31672 55.75C8.30005 55.6167 8.25005 55.4833 8.21672 55.35C8.13338 55.0833 8.03338 54.75 8.00005 54.3667C8.00005 54.2333 7.95005 54.0833 7.93338 53.95C7.86672 53.6167 7.80005 53.3 7.80005 52.9667C7.80005 52.5 7.96672 52.1 8.08338 51.8167C8.11672 51.7333 8.16672 51.65 8.18338 51.55C8.18338 51.5 8.15005 51.4167 8.11672 51.3167C8.03338 51.0167 7.93338 50.6 8.00005 50.1333C8.05005 49.8167 8.13338 49.5 8.25005 49.1833C8.30005 49.0333 8.35005 48.9 8.38338 48.75C8.48338 48.3167 8.66672 48 8.81672 47.7333C8.86672 47.6333 8.95005 47.5 8.96672 47.45C9.00005 47.3167 9.05005 47.1667 9.08338 47.0167C9.16672 46.7 9.23338 46.4 9.35005 46.1C9.46672 45.7833 9.60005 45.4833 9.75005 45.2L9.93338 44.8333C10.0834 44.5 10.3 44.2167 10.45 44C10.5334 43.8833 10.6167 43.7833 10.6834 43.65C10.6834 43.65 10.6834 43.5833 10.6834 43.5C10.7167 43.15 10.75 42.6833 11.05 42.2333C11.2667 41.9 11.5167 41.6667 11.7334 41.4667C11.8334 41.3833 11.9334 41.3 12.0167 41.1833C12.2834 40.8333 12.5834 40.6167 12.8334 40.45C12.9167 40.3833 13.05 40.3 13.0834 40.2667C13.1167 40.2333 13.1834 40.0833 13.2334 40C13.3667 39.7333 13.5334 39.4 13.85 39.0833C14.1667 38.7667 14.3334 38.65 14.5167 38.5167C14.6167 38.45 14.7167 38.3833 14.8834 38.2167C15.1501 37.95 15.2834 37.8333 15.4167 37.7167C15.5334 37.6167 15.65 37.5167 15.85 37.3C16.0167 36.8833 16.1667 36.5333 16.5667 36.1333C16.9667 35.7333 17.3334 35.5833 17.6334 35.4833C17.9167 35.25 17.9834 35.1667 18.05 35.0667C18.1834 34.8833 18.3 34.7167 18.6167 34.4167C18.7834 34 18.9167 33.65 19.3334 33.25C19.6 32.9833 19.7334 32.8667 19.8667 32.75C19.9834 32.65 20.0834 32.55 20.3 32.35C20.8334 31.8167 21.3667 31.75 21.65 31.7C22 31.35 22.3834 31.0667 22.9 30.8167C22.9334 30.7833 23 30.7333 23.05 30.6667C23.3167 30.4 23.7334 30.0167 24.3667 29.9167C24.9167 29.8333 25.4001 29.9667 25.75 30.0667C25.85 30.1 25.9501 30.1333 26.0667 30.15C26.1334 30.15 26.2334 30.15 26.3167 30.15C26.6834 30.1167 27.25 30.0667 27.8167 30.35C28.1501 30.5167 28.7834 30.8833 29.2834 31.3833C29.8 31.9 29.8334 32.5833 29.85 32.9833C29.85 33.05 29.85 33.1333 29.85 33.2C29.85 33.1333 29.9 33.1833 29.95 33.2333C30.2167 33.5 30.6334 33.9167 30.7334 34.5667L30.7667 34.8C30.85 35.2333 30.9334 35.7833 30.85 36.3333C30.7667 36.8833 30.4667 37.3167 30.25 37.6333C30.1834 37.7333 30.1167 37.8167 30.0667 37.9167C29.8001 38.45 29.4167 38.8333 29.0834 39.1667L28.9501 39.35C28.85 39.6667 28.7 40.0167 28.2834 40.4333C28.0667 40.65 27.9667 40.75 27.8667 40.8667C27.75 41 27.6167 41.15 27.35 41.4L26.4 42.3333C26.0667 42.6667 25.8334 42.8167 25.5834 42.95C25.4667 43.0167 25.4334 43.0333 25.3167 43.15C25.15 43.3167 25.0667 43.4167 25 43.5167C24.8667 43.6833 24.75 43.8667 24.45 44.15C24.2 44.4 24.0667 44.5333 23.9334 44.65C23.8167 44.75 23.7 44.85 23.5 45.0667C23.1667 45.4 22.9 45.55 22.65 45.6833C22.5334 45.75 22.5167 45.75 22.4167 45.85C22.0834 46.1833 21.8501 46.3333 21.6167 46.4667C21.5001 46.5333 21.4667 46.55 21.3501 46.6667L21.1334 46.8667C20.9334 47.0667 20.7 47.2833 20.5334 47.5C20.3334 47.7667 20.1334 48.05 19.9667 48.3333C19.9667 48.3833 19.9667 48.4333 19.9667 48.4833C20 48.8167 20.05 49.2667 19.8667 49.7333L19.7334 50.0833C19.6334 50.3167 19.5334 50.5333 19.4834 50.7833C19.4 51.1167 19.25 51.4 19.1334 51.6167C19.0834 51.7 19.0167 51.8333 19 51.8833C18.9667 52.1 18.9001 52.3667 18.8334 52.6167C18.8 52.75 18.7334 52.95 18.7334 53.0167C18.7334 53.0667 18.8 53.2333 18.8334 53.35C18.9167 53.5833 19.0001 53.8667 19.05 54.1833C19.05 54.2833 19.1334 54.45 19.2001 54.6167C19.2834 54.8333 19.3667 55.05 19.4167 55.2833C19.4667 55.45 19.5001 55.6333 19.5334 55.8C19.5667 56 19.6 56.2 19.6834 56.3833C19.7501 56.5667 19.8667 56.7333 19.9667 56.9C20.0667 57.05 20.1667 57.2167 20.25 57.3667C20.4334 57.6833 20.5 58 20.5667 58.25C20.5667 58.3 20.5834 58.35 20.6 58.4C20.6334 58.4 20.65 58.4167 20.6834 58.4333C20.9667 58.55 21.3667 58.7 21.7 59.0333C21.9667 59.3 22.2334 59.5333 22.5334 59.7667C22.6667 59.8667 22.8 59.9833 22.9334 60.1C23.0834 60.2333 23.2334 60.3667 23.4167 60.4667C23.6501 60.6 23.8667 60.7667 24.0667 60.95C24.15 61.0333 24.3001 61.15 24.35 61.1667C24.5501 61.25 24.75 61.3667 24.9667 61.4667C25.1334 61.5667 25.3 61.65 25.4 61.6833C25.4667 61.7 25.6667 61.6833 25.8334 61.6833C26.0834 61.6833 26.3334 61.6833 26.5834 61.7167C26.9667 61.7667 27.35 61.8167 27.7334 61.8167C27.7667 61.8167 27.9167 61.75 28 61.7167C28.2334 61.6333 28.5167 61.5167 28.85 61.4833C29.3167 61.4167 29.7167 61.55 30.0334 61.65C30.25 61.3833 30.5334 61.05 31 60.8667C31.35 60.7333 31.6667 60.6833 31.9167 60.65C32.0167 60.65 32.1 60.65 32.1834 60.6167C32.3334 60.5333 32.4834 60.3833 32.65 60.25C32.7834 60.1333 32.9167 60.0333 33.05 59.9333C33.2334 59.7833 33.4501 59.6667 33.6667 59.5333C33.8167 59.45 33.9834 59.35 34.0334 59.3C34.0334 59.3 34.0667 59.2444 34.1334 59.1333C34.2167 58.9167 34.3667 58.5667 34.7834 58.1667C35.2167 57.7333 35.6 57.6 35.9167 57.5C36 57.2167 36.0834 56.7167 36.6 56.2C37.0167 55.7833 37.3667 55.6333 37.5834 55.55C37.65 55.5278 37.7056 55.4944 37.75 55.45L38.1834 55C38.3 54.8667 38.4167 54.75 38.6667 54.5C38.6667 54.5 38.7001 54.4444 38.7667 54.3333C38.85 54.1167 39 53.7667 39.4167 53.35C39.7834 52.9833 40.0667 52.8333 40.3334 52.7167C40.4501 52.6667 40.4501 52.6667 40.5334 52.5833C40.8167 52.3 40.9667 52.1833 41.1167 52.05C41.2167 51.9667 41.3334 51.8833 41.5167 51.6833C41.5834 51.6167 41.6334 51.5167 41.7001 51.4333C41.9167 51.1 42.2001 50.65 42.7334 50.3833C43.3 50.1 43.8834 50.15 44.25 50.2C44.35 50.2 44.4334 50.2333 44.5167 50.2167C44.6 50.2167 44.7001 50.1667 44.8167 50.15C45.1667 50.05 45.6667 49.9167 46.2167 50C46.75 50.0833 47.3501 50.2 47.9167 50.4667C48.3167 50.6667 48.9334 50.9833 49.4001 51.45C49.8334 51.8833 49.9667 52.4 50.0834 52.7833C50.1167 52.8833 50.1334 52.9667 50.1667 53.05C50.4334 53.5667 50.4334 54.05 50.4334 54.4167C50.4334 54.5167 50.4334 54.6 50.4334 54.7C50.5167 55.2 50.5834 55.7 50.4834 56.3167C50.4001 56.9 50.2334 57.3667 49.9834 57.8667L49.8834 58.05C49.7167 58.4 49.5 58.8333 49.1 59.25C49.0167 59.3333 49.0167 59.3333 48.9667 59.45C48.85 59.7167 48.7001 60.0167 48.3334 60.3833C48.2001 60.5167 48.1667 60.5667 48.0834 60.7C47.9667 60.8667 47.8334 61.1167 47.4834 61.45C47.2334 61.7 47.1001 61.8167 46.9667 61.95C46.8501 62.05 46.7334 62.1667 46.5167 62.3833C46.0834 62.8167 45.7167 62.95 45.4834 63.0333C45.1667 63.3 45.0834 63.4 45 63.5C44.8667 63.6667 44.75 63.8167 44.4667 64.1C44.3167 64.25 44.2834 64.3167 44.2001 64.4167C44.0834 64.5833 43.9501 64.8 43.6167 65.1333C43.3 65.45 43.1167 65.5833 42.9167 65.7C42.8334 65.7667 42.7334 65.8167 42.5834 65.9667C42.4834 66.0667 42.4667 66.1 42.4001 66.2167C42.3001 66.4 42.1501 66.6833 41.7834 67.05C41.35 67.4833 40.8 67.5833 40.4501 67.65C40.3334 68 40.1667 68.5333 39.6667 68.9167C39.3167 69.1833 38.9501 69.3 38.6501 69.4C38.5501 69.4333 38.4 69.4833 38.35 69.5C38.3167 69.5333 38.2 69.65 38.1334 69.7167C37.9334 69.95 37.6667 70.2333 37.2834 70.45C36.8167 70.7 36.35 70.7167 36.0167 70.7333C35.9334 70.7333 35.85 70.7333 35.7667 70.7333C35.7667 70.7333 35.6834 70.8333 35.6 70.9C35.3667 71.0833 35.0667 71.35 34.6501 71.5167C34.5167 71.5667 34.4 71.6333 34.2667 71.7C34 71.8333 33.7167 72 33.35 72.1C32.9501 72.2167 32.5834 72.2167 32.3 72.2167C32.1667 72.2167 32 72.2167 31.9334 72.2333C31.8 72.2667 31.6834 72.3167 31.5501 72.3667C31.2834 72.4667 30.9501 72.6 30.5667 72.65C30.4667 72.65 30.3667 72.6667 30.2834 72.6667L30.2667 72.7333ZM29.0834 70C29.4667 70 29.7834 70.1 30.0334 70.1833C30.1167 70.2167 30.2001 70.2333 30.2834 70.25C30.2834 70.25 30.4501 70.1833 30.6167 70.1167C30.8667 70.0167 31.1334 69.9167 31.3834 69.8667C31.7 69.8 32.0167 69.8 32.2667 69.8C32.4001 69.8 32.5834 69.8 32.65 69.7833C32.75 69.75 32.9167 69.6667 33.0667 69.5833C33.3001 69.4667 33.5334 69.3333 33.7667 69.25C33.8001 69.25 33.9 69.1333 33.9834 69.0667C34.1834 68.9 34.4501 68.6833 34.7834 68.5167C35.2001 68.3167 35.6167 68.3167 35.9167 68.3C36 68.3 36.0834 68.3 36.1501 68.3C36.1501 68.3 36.2001 68.2 36.2667 68.1167C36.4501 67.9167 36.6667 67.6667 36.9834 67.4667C37.3001 67.2667 37.6167 67.1667 37.8667 67.0833C37.9167 67.0833 37.9834 67.05 38.0334 67.0333C38.0334 67.0167 38.0334 66.9833 38.05 66.9667C38.15 66.6333 38.3167 66.15 38.7334 65.7833C39.15 65.4167 39.65 65.3333 39.9834 65.2667C40.0334 65.2667 40.0667 65.2667 40.1167 65.25C40.1501 65.2167 40.1667 65.1667 40.2001 65.1167C40.3001 64.9333 40.4501 64.65 40.8167 64.2833C41.1334 63.9667 41.3167 63.8333 41.5167 63.7167C41.6 63.65 41.7001 63.6 41.8501 63.45C42 63.3 42.0334 63.2333 42.1167 63.1167C42.2334 62.95 42.3667 62.7333 42.7001 62.4C42.8834 62.2167 42.9667 62.1167 43.05 62.0167C43.1834 61.85 43.3 61.7 43.6 61.4C44.0334 60.9667 44.4001 60.8333 44.6334 60.75C45.0167 60.4167 45.1501 60.3 45.2834 60.1667C45.4001 60.0667 45.5167 59.9667 45.7334 59.75C45.8667 59.6167 45.9001 59.5667 45.9667 59.45C46.0834 59.2833 46.2167 59.0333 46.5667 58.7C46.6501 58.6167 46.6501 58.6167 46.7001 58.5C46.8167 58.2333 46.9667 57.9333 47.3334 57.5667C47.4334 57.4667 47.5167 57.3 47.6501 57.05L47.7667 56.8167C47.9001 56.55 47.9667 56.3333 48.0167 56.0167C48.05 55.7833 48.0167 55.5833 47.9667 55.1667C47.9334 54.95 47.9334 54.7167 47.9334 54.5C47.9334 54.4 47.9334 54.2667 47.9334 54.2167C47.8334 54.05 47.7667 53.8 47.6834 53.5333C47.6501 53.4333 47.6167 53.2833 47.5834 53.2333C47.4501 53.1167 47.05 52.9167 46.7834 52.7833C46.5334 52.6667 46.1001 52.6 45.8334 52.55C45.7834 52.55 45.6001 52.6 45.4834 52.6333C45.2834 52.6833 45.0834 52.7333 44.9001 52.7667C44.5667 52.8167 44.25 52.7833 44 52.7667C43.9501 52.7667 43.9167 52.7667 43.8667 52.7667C43.8334 52.8 43.8167 52.85 43.7834 52.9C43.6501 53.1 43.5 53.3333 43.2834 53.55C43 53.8333 42.8501 53.95 42.7001 54.0833C42.6001 54.1667 42.4834 54.25 42.3 54.45C41.9334 54.8167 41.6501 54.9667 41.3834 55.0833C41.2667 55.1333 41.2667 55.1333 41.1834 55.2167C41.1834 55.2167 41.1501 55.2722 41.0834 55.3833C41 55.6 40.8501 55.95 40.4334 56.3667L40 56.8167C39.8834 56.95 39.7667 57.0667 39.5167 57.3167C39.1 57.7333 38.7501 57.8833 38.5334 57.9667C38.4667 57.9889 38.4112 58.0222 38.3667 58.0667C38.3667 58.3167 38.2667 58.8333 37.75 59.35C37.3167 59.7833 36.9334 59.9167 36.6167 60.0167C36.5278 60.0722 36.4667 60.1389 36.4334 60.2167C36.35 60.4333 36.2 60.7833 35.7834 61.1833C35.4834 61.4833 35.15 61.6667 34.8834 61.8333C34.7667 61.9 34.65 61.95 34.55 62.0333C34.45 62.1167 34.35 62.2 34.25 62.2833C33.9667 62.5167 33.6834 62.75 33.3834 62.9333C32.9501 63.1833 32.5167 63.2333 32.2 63.2667C32.1334 63.2667 32.0834 63.2667 32.0167 63.2833C31.9834 63.3167 31.95 63.35 31.9334 63.4C31.7 63.7 31.3334 64.1333 30.7167 64.3C30.1334 64.45 29.6167 64.3 29.2834 64.1667C29.2167 64.15 29.1334 64.1167 29.0667 64.1C29.1 64.1 28.9667 64.1667 28.8834 64.2C28.6 64.3167 28.2 64.4667 27.7334 64.4667C27.2667 64.4667 26.75 64.4 26.2667 64.35C26.15 64.3333 26.0167 64.35 25.8834 64.35C25.5667 64.35 25.1834 64.35 24.7667 64.25C24.3667 64.15 24.0334 63.95 23.75 63.8C23.6334 63.7333 23.5167 63.6667 23.4001 63.6167C22.9834 63.45 22.6834 63.1833 22.4501 62.9833C22.3667 62.9 22.2834 62.8167 22.1834 62.7667C21.8667 62.5833 21.6001 62.3667 21.3334 62.1333C21.2334 62.05 21.1334 61.9667 21.0334 61.8833C20.65 61.5833 20.3 61.2833 19.9501 60.9333C19.9501 60.9667 19.8834 60.9333 19.8167 60.9C19.4834 60.7667 19 60.5833 18.65 60.1167C18.35 59.7167 18.25 59.2833 18.1667 58.9667C18.15 58.8667 18.1334 58.7833 18.1 58.7C18.0334 58.6 17.9667 58.4833 17.9 58.3667C17.7 58.0667 17.5167 57.7667 17.3834 57.4333C17.2501 57.1 17.1834 56.75 17.1167 56.4C17.1 56.2667 17.0667 56.1333 17.0334 56.0167C17 55.8833 16.9501 55.7667 16.9001 55.65C16.8 55.3667 16.6667 55.0167 16.6167 54.6167C16.6167 54.55 16.5667 54.4 16.5167 54.2833C16.4167 53.9833 16.2834 53.6 16.2834 53.15C16.2834 52.7 16.4001 52.35 16.4834 52.05C16.5167 51.9333 16.5667 51.8 16.5834 51.6833C16.6334 51.2167 16.85 50.8333 16.9834 50.5667C17.0334 50.4833 17.1 50.35 17.1167 50.3C17.2167 49.9333 17.35 49.5833 17.4834 49.25L17.6 48.95C17.6 48.95 17.55 48.95 17.55 48.8667C17.5167 48.5 17.45 47.95 17.75 47.4C17.9834 46.9667 18.2834 46.5333 18.5834 46.1333C18.8334 45.8167 19.1334 45.5 19.4334 45.2167L19.6334 45.0333C19.9667 44.7 20.2001 44.55 20.4334 44.4167C20.55 44.35 20.5834 44.3333 20.7 44.2167C21.0334 43.8833 21.3 43.7333 21.5334 43.6C21.65 43.5333 21.6667 43.5333 21.7667 43.4333C22.0167 43.1833 22.1501 43.05 22.3001 42.9333C22.4167 42.8333 22.5167 42.7333 22.7334 42.5167C22.9001 42.35 22.9834 42.25 23.05 42.15C23.1834 41.9833 23.3 41.8 23.6 41.5167C23.9334 41.1833 24.1667 41.0333 24.4167 40.9C24.5334 40.8333 24.5667 40.8167 24.6834 40.7L25.6334 39.7667C25.8501 39.55 25.9501 39.4333 26.0501 39.3333C26.1667 39.2 26.3 39.05 26.55 38.8C26.7001 38.3833 26.85 38.0167 27.2667 37.6167C27.5667 37.3167 27.7834 37.1 27.8667 36.9333C27.9667 36.75 28.0834 36.55 28.2167 36.3667C28.2834 36.2667 28.4 36.1167 28.4167 36.05C28.4167 35.95 28.3667 35.6167 28.3334 35.3833V35.2667C28.3334 35.2667 28.2334 35.2 28.2001 35.1667C28.0167 34.9833 27.7667 34.7333 27.6 34.4C27.4 34 27.3834 33.5833 27.3667 33.2833C27.3667 33.25 27.3667 33.2167 27.3667 33.1833C27.1834 33.0333 26.9501 32.8833 26.6834 32.75C26.7167 32.7833 26.6334 32.8 26.5334 32.8167C26.3 32.8333 26 32.8667 25.6834 32.8167C25.4834 32.7833 25.2834 32.7333 25.0834 32.6667C25.0167 32.65 24.9334 32.6167 24.85 32.6C24.8334 32.6167 24.8167 32.6333 24.7834 32.6667C24.6 32.8333 24.3667 33.0833 24.0334 33.25C23.7667 33.3833 23.5834 33.5167 23.3667 33.7333C22.8334 34.2667 22.3001 34.3333 22.0167 34.3833C21.8167 34.5833 21.6667 34.7167 21.5334 34.8333C21.4167 34.9333 21.3167 35.0333 21.1 35.2333C20.9334 35.65 20.8 36 20.3834 36.4C20.2167 36.5667 20.1501 36.6667 20.0834 36.75C19.9501 36.9333 19.8334 37.1 19.5167 37.4C19.1167 37.8 18.75 37.95 18.45 38.05L18.3 38.15C18.1667 38.5167 18.0167 38.8667 17.6167 39.2833C17.35 39.55 17.2167 39.6667 17.0834 39.8C16.9667 39.9 16.85 40 16.65 40.2167C16.35 40.5167 16.1667 40.65 15.9834 40.7833C15.8834 40.85 15.7834 40.9167 15.6167 41.0833C15.5834 41.1167 15.5167 41.2667 15.4667 41.35C15.35 41.5833 15.2 41.8667 14.9667 42.1333C14.7334 42.4167 14.4667 42.6 14.25 42.7333C14.1667 42.8 14.0334 42.8833 14 42.9167C13.8334 43.1333 13.6334 43.3333 13.4334 43.5167C13.3167 43.6167 13.1834 43.75 13.15 43.8167C13.1834 43.7667 13.1834 43.8667 13.1834 43.9333C13.15 44.25 13.1167 44.6667 12.9 45.0833C12.7834 45.3 12.6334 45.5167 12.4667 45.7167C12.3667 45.8667 12.25 46 12.2167 46.1L12.0167 46.5167C11.9 46.75 11.8 46.9667 11.7 47.2C11.6167 47.4167 11.5667 47.6333 11.5167 47.8333C11.4667 48.0167 11.4334 48.1833 11.3834 48.3667C11.2834 48.7167 11.1167 48.9833 10.9834 49.2167C10.9334 49.3167 10.85 49.45 10.8334 49.5C10.7834 49.7167 10.7167 49.95 10.6334 50.1833C10.5834 50.35 10.5167 50.5167 10.4834 50.7C10.4834 50.7333 10.5167 50.8333 10.55 50.9167C10.6167 51.2 10.7167 51.55 10.6834 51.95C10.65 52.35 10.5167 52.6833 10.4167 52.95C10.3834 53.0333 10.3334 53.1333 10.3167 53.2167C10.3167 53.3333 10.3667 53.5 10.4 53.6667C10.45 53.9167 10.5 54.1667 10.5167 54.4167C10.5167 54.5167 10.5834 54.6833 10.6167 54.85C10.7 55.1 10.7667 55.3667 10.8 55.6167C10.8334 55.8 10.85 55.9833 10.8667 56.15C10.8834 56.3833 10.9167 56.6 10.95 56.8167C10.95 56.8667 11.05 57.0333 11.1 57.1333C11.2167 57.35 11.3667 57.6167 11.45 57.9333C11.5667 58.3333 11.55 58.7167 11.5334 59C11.5334 59.0833 11.5334 59.1833 11.5334 59.2667C11.5834 59.3833 11.6334 59.5667 11.7 59.75C11.7667 59.9667 11.8334 60.1667 11.9167 60.3667C11.95 60.4 12.0167 60.45 12.0834 60.5167C12.2834 60.7 12.55 60.95 12.75 61.3167C12.8667 61.5333 12.9667 61.7667 13.05 62.0167C13.1167 62.1833 13.1834 62.35 13.2334 62.45C13.35 62.6333 13.4667 62.8333 13.5667 63.0333C13.6501 63.2 13.7334 63.3667 13.85 63.5167C13.9667 63.6833 14.0834 63.85 14.2001 64.0333C14.3167 64.2 14.4167 64.3833 14.55 64.5333L14.7334 64.7333C14.95 64.9833 15.1667 65.2333 15.3834 65.45C15.5334 65.6 15.7167 65.7333 15.8834 65.8667C16.0334 65.9833 16.2001 66.1167 16.35 66.2333C16.55 66.4 16.7167 66.6 16.8834 66.8C17 66.9333 17.1334 67.0833 17.2167 67.15C17.1667 67.1 17.2501 67.1 17.3167 67.1167C17.6334 67.1667 18.0667 67.2167 18.4834 67.4833C18.6834 67.6167 18.9167 67.7333 19.1334 67.8333L19.55 68.05C19.9 68.25 20.1667 68.5167 20.35 68.7167C20.4167 68.7833 20.4667 68.85 20.55 68.9167L20.8834 69.0667C21.1334 69.1833 21.3834 69.3 21.6334 69.4C21.8334 69.4667 22.0167 69.5667 22.2167 69.65C22.4 69.7333 22.5834 69.8167 22.7834 69.8833C22.85 69.8833 22.95 69.8833 23.0334 69.8667C23.3167 69.85 23.65 69.8167 24.05 69.9L24.5334 70.0167C24.7667 70.0833 25 70.1333 25.25 70.1667L25.4334 70.2C25.7834 70.25 26.1167 70.3 26.4667 70.3167C26.7001 70.3167 26.95 70.3167 27.1834 70.3167H27.6834C27.8667 70.3167 28.0501 70.2667 28.2167 70.2333C28.4501 70.2 28.6667 70.1667 28.9 70.15C28.9501 70.15 29 70.15 29.0501 70.15L29.0834 70ZM33.6 52.75C32.9167 52.75 32.3667 52.4667 31.9334 52.2333C31.8167 52.1667 31.6834 52.1 31.5667 52.05C31.0167 51.8167 30.35 51.55 29.7667 50.9667C29.2167 50.4167 28.9334 49.8167 28.6834 49.1833L28.6 48.9667C28.3834 48.4833 28.1334 47.8667 28.1334 47.15C28.1334 47.0333 28.1334 46.9 28.1334 46.7667C28.1 46.25 28.0834 45.5833 28.3334 44.95C28.6 44.3 29.1 43.8333 29.4834 43.45L29.7167 43.2333C30.1 42.85 30.4 42.7 30.6834 42.5833C30.7612 42.55 30.8223 42.5111 30.8667 42.4667C31.1501 42.1833 31.3001 42.0667 31.4501 41.9333C31.5501 41.85 31.65 41.7667 31.8 41.6167C31.85 41.2333 31.95 40.7333 32.45 40.2333L33.4167 39.2833C33.7 39 33.85 38.8833 33.9834 38.75C34.1 38.65 34.2 38.5667 34.4 38.3667C34.7334 38.0333 34.9667 37.8833 35.2001 37.75C35.3167 37.6833 35.3667 37.6667 35.4834 37.5333C35.8501 37.1667 36.1334 37.0167 36.3334 36.9167C36.45 36.85 36.4834 36.8333 36.6 36.7333C36.85 36.4667 37.0001 36.35 37.1334 36.2333C37.2501 36.1333 37.3667 36.0333 37.5834 35.8C37.7667 35.6167 37.8334 35.5167 37.9167 35.4167C38.05 35.25 38.1834 35.0667 38.4834 34.7667C38.8167 34.4333 39.05 34.2833 39.3 34.15C39.4167 34.0833 39.4501 34.0667 39.5834 33.95L40.55 33C40.7667 32.7833 40.8667 32.6667 40.9667 32.55C41.1 32.4167 41.2167 32.2667 41.4834 32C41.6167 31.65 41.7667 31.25 42.2001 30.8C42.5 30.5 42.6667 30.3667 42.8334 30.25C42.9334 30.1667 43.0501 30.0833 43.2334 29.9C43.6501 29.4833 44.1334 29.3333 44.4667 29.2333C44.55 29.2 44.6334 29.1833 44.7167 29.15L44.9667 29.0167C45.3 28.8333 45.7001 28.6167 46.2334 28.5333C46.2834 28.5333 46.3501 28.4667 46.4334 28.4333C46.7834 28.2667 47.3167 28 47.9501 28.1C48.6667 28.2167 49.0834 28.7333 49.3334 29.0333C49.3834 29.1 49.4334 29.1667 49.4834 29.2167C49.4501 29.1833 49.5334 29.2 49.6167 29.2167C49.9667 29.3 50.4834 29.4333 50.9167 29.8667C51.3667 30.3167 51.6501 30.85 51.8667 31.2667C52.1334 31.7833 52.1334 32.2667 52.1334 32.6333C52.1334 32.7333 52.1334 32.8333 52.1334 32.9167C52.1334 33 52.1834 33.1 52.2167 33.1833C52.3334 33.5 52.5001 33.9833 52.4167 34.5667C52.3167 35.1833 52.1501 35.7167 51.9001 36.1833C51.6334 36.7 51.2334 36.9833 50.9334 37.1833C50.85 37.2333 50.7667 37.2833 50.7001 37.3667C50.7001 37.6167 50.6 38.1333 50.0834 38.65C49.65 39.0833 49.2667 39.2167 48.9501 39.3167C48.8612 39.3833 48.8 39.45 48.7667 39.5167C48.6501 39.8 48.5001 40.1167 48.1167 40.4833C47.7834 40.8167 47.55 40.9667 47.3167 41.1C47.2001 41.1667 47.15 41.2 47.0334 41.3167C46.85 41.5 46.7667 41.6 46.7001 41.7C46.5667 41.8667 46.4501 42.0333 46.1501 42.3333C45.7167 42.7667 45.3501 42.9 45.1334 42.9833L45.0667 42.9333C45.0334 43.3167 44.9501 43.8833 44.4167 44.4167C43.9001 44.95 43.3667 45.0167 43.0834 45.0667C43.05 45.1 43.05 45.1 43 45.2167C42.8834 45.5 42.7334 45.8 42.35 46.1667C42.1 46.4167 41.9667 46.55 41.8334 46.6667C41.7167 46.7667 41.6 46.8833 41.3834 47.1C41.2667 47.2167 41.2334 47.2667 41.1667 47.3833C41.0334 47.6167 40.8834 47.8667 40.55 48.2C40.2167 48.5333 39.9667 48.6833 39.8 48.8C39.6834 48.8667 39.6334 48.9167 39.4834 49.05C39.1 49.4333 38.8001 49.5833 38.6167 49.6833C38.5 49.75 38.4667 49.75 38.3667 49.8667C38.0667 50.1667 37.9 50.3 37.7334 50.4167C37.6334 50.5 37.5334 50.5833 37.35 50.75C36.85 51.25 36.3334 51.6 35.6667 51.8667C35.6 51.9 35.4501 52 35.3334 52.0833C34.9501 52.35 34.4167 52.7333 33.6834 52.7333L33.6 52.75ZM34.25 41.95C34.2 42.3333 34.1 42.8333 33.6 43.3333C33.3167 43.6167 33.1667 43.7333 33.0167 43.8667C32.9 43.95 32.8 44.05 32.6 44.25C32.2167 44.6333 31.9167 44.7833 31.6334 44.9C31.5556 44.9333 31.5 44.9722 31.4667 45.0167L31.2 45.2833C30.9834 45.4833 30.6834 45.7667 30.6167 45.9333C30.5667 46.05 30.5834 46.4333 30.6 46.6667C30.6 46.8333 30.6 47 30.6 47.1667C30.6 47.3833 30.7334 47.6833 30.8667 48.0167L30.9667 48.25C31.1334 48.6667 31.3 49.0167 31.5167 49.2333C31.7334 49.45 32.0834 49.6 32.4834 49.7667C32.7 49.85 32.9001 49.95 33.1 50.0667C33.2667 50.15 33.5 50.2833 33.5834 50.3C33.5334 50.3 33.6834 50.1833 33.7834 50.1C34 49.95 34.2667 49.7667 34.5834 49.6333C34.9334 49.4833 35.1667 49.3333 35.4501 49.05C35.75 48.75 35.9167 48.6167 36.0834 48.5C36.1834 48.4167 36.2834 48.3333 36.4667 48.15C36.85 47.7667 37.15 47.6167 37.3334 47.5167C37.45 47.45 37.4834 47.45 37.5834 47.3333C37.9167 47 38.1667 46.85 38.3334 46.7333C38.4501 46.6667 38.5001 46.6167 38.6501 46.4833C38.7667 46.3667 38.8 46.3167 38.8667 46.2C39 45.9667 39.1501 45.7167 39.4834 45.3833C39.7334 45.1333 39.8667 45 40 44.8833C40.1167 44.7833 40.2334 44.6667 40.4501 44.45C40.5167 44.3667 40.5334 44.3667 40.5834 44.25C40.7001 43.9667 40.85 43.6667 41.2334 43.3C41.7001 42.8333 42.1667 42.7167 42.4667 42.6667C42.5167 42.3 42.6334 41.8167 43.1001 41.35C43.5334 40.9167 43.9 40.7833 44.1167 40.7L45.1501 41.5L44.2667 40.6167C44.4501 40.4333 44.5334 40.3333 44.6001 40.2333C44.7334 40.0667 44.8501 39.9 45.1501 39.6C45.4834 39.2667 45.7167 39.1167 45.9501 38.9833C46.0667 38.9167 46.1167 38.8833 46.2334 38.7667C46.2334 38.7667 46.2723 38.7111 46.35 38.6C46.4667 38.3167 46.6167 38 47 37.6333C47.4334 37.2 47.8167 37.0667 48.1334 36.9667C48.2167 36.6833 48.3167 36.1667 48.8334 35.65C49.0167 35.4667 49.2167 35.3167 49.4167 35.1833C49.4834 35.1333 49.5667 35.0833 49.6334 35.0333C49.7001 34.8667 49.8 34.5833 49.8501 34.2333C49.8501 34.2333 49.8001 34.15 49.7667 34.0667C49.6834 33.8333 49.6167 33.6 49.5667 33.3667C49.5334 33.15 49.5334 32.9333 49.5334 32.7167C49.5334 32.6167 49.5334 32.4833 49.5334 32.4333C49.4 32.1833 49.2667 31.9333 49.1167 31.75C49.05 31.7333 48.9834 31.7167 48.9167 31.7C48.7001 31.65 48.4334 31.5833 48.1667 31.4333C47.8 31.25 47.5667 30.9833 47.3834 30.75C47.1501 30.8667 46.8667 30.9833 46.5334 31.05C46.4334 31.05 46.2834 31.15 46.0834 31.25L45.7667 31.4167C45.5667 31.5167 45.35 31.6 45.1167 31.6667C45.0334 31.7 44.9001 31.7333 44.8667 31.75C44.6167 32.0167 44.4501 32.1333 44.2834 32.2667C44.1834 32.35 44.0667 32.4333 43.8834 32.6167C43.75 32.9667 43.6 33.3667 43.1667 33.8167C42.9501 34.0333 42.85 34.15 42.75 34.2667C42.6167 34.4 42.5 34.55 42.2334 34.8167L41.2667 35.7667C40.9334 36.1 40.7001 36.25 40.4501 36.3833C40.3334 36.45 40.3 36.4667 40.1667 36.5833C39.9834 36.7667 39.9167 36.8667 39.8334 36.9667C39.7 37.1333 39.5667 37.3167 39.2667 37.6167C39.0167 37.8833 38.8667 38 38.7334 38.1167C38.6167 38.2167 38.5 38.3167 38.2834 38.55C37.9167 38.9167 37.6334 39.0667 37.4334 39.1667C37.3167 39.2333 37.2834 39.25 37.1667 39.35C36.8334 39.6833 36.6 39.8333 36.3667 39.9667C36.25 40.0333 36.2 40.05 36.0834 40.1833C35.8 40.4667 35.6667 40.5833 35.5167 40.7167C35.4 40.8167 35.3 40.9 35.1 41.1L34.2001 41.9833L34.25 41.95ZM44.0334 42.2167L44.9167 43.1C44.9167 43.1 44.9834 43.0167 45 42.9667L44.0334 42.2333V42.2167ZM55.3834 51.0667C54.55 51.0667 53.7667 50.8167 53.2501 50.6C52.6167 50.3333 52.2334 49.85 51.9501 49.4833C51.8667 49.3667 51.7834 49.2667 51.6834 49.1667C51.3334 48.8167 50.9667 48.4167 50.6834 47.8667C50.6501 47.8333 50.5834 47.7833 50.5334 47.7167C50.25 47.4333 49.8334 47.0167 49.7334 46.3667C49.6501 45.8167 49.75 45.3 49.8334 44.8833L49.8834 44.5833C49.9501 44.15 50.05 43.4667 50.35 42.8833C50.6667 42.25 51.1501 41.7167 51.4167 41.4667C51.7167 41.1667 51.8834 41.05 52.05 40.9167C52.1501 40.8333 52.25 40.7667 52.4334 40.5833C52.7334 40.2833 52.9167 40.15 53.1001 40.0167C53.2001 39.95 53.3001 39.8833 53.4667 39.7167C53.8001 39.3833 54.0334 39.2333 54.2001 39.1167C54.3167 39.05 54.3667 39 54.5167 38.8667C54.6834 38.45 54.8167 38.1 55.2334 37.7C55.5167 37.4167 55.6667 37.2833 55.8334 37.1667C55.9334 37.0833 56.0334 37 56.2334 36.8167C56.6501 36.4 57.0167 36.2667 57.3167 36.1667C57.5 36.0333 57.5167 36 57.5667 35.9C57.7001 35.65 57.8501 35.3833 58.1834 35.0333C58.4667 34.75 58.6167 34.6333 58.7667 34.5C58.8667 34.4167 58.9834 34.3167 59.1834 34.1333C59.25 34.0667 59.3501 33.9 59.4334 33.75C59.55 33.55 59.6834 33.3333 59.8167 33.15C59.8834 33.0667 59.9501 32.9 60.0334 32.7333C60.1167 32.5333 60.2167 32.3333 60.3167 32.1333C60.5 31.8 60.75 31.5667 60.9501 31.3833C61.0167 31.3167 61.0834 31.2667 61.1334 31.2C61.0834 31.2333 61.0834 31.1333 61.0834 31.05C61.0834 30.7833 61.0667 30.45 61.1667 30.0667C61.2167 29.8667 61.2834 29.6667 61.3501 29.4833C61.4167 29.2833 61.4834 29.1167 61.5001 28.9833C61.5501 28.65 61.6501 28.3667 61.7334 28.15C61.7667 28.05 61.8334 27.9 61.8334 27.8333C61.8334 27.5833 61.7834 27.3333 61.75 27.0667L61.6667 26.4333C61.6334 26.1333 61.6001 25.8167 61.5167 25.5333C61.4667 25.3167 61.4167 25.1 61.3834 24.8667C61.3501 24.6667 61.3167 24.4667 61.2834 24.3667C61.2834 24.4333 61.2334 24.3833 61.1667 24.3333C60.9334 24.15 60.6167 23.9 60.3834 23.5167C60.2667 23.3 60.1667 23.0667 60.0667 22.8333C60.0167 22.7 59.9501 22.5167 59.9 22.4667C59.7001 22.2 59.5667 21.9333 59.4667 21.7167C59.4167 21.6167 59.3501 21.45 59.3001 21.4167C59.2667 21.4 59.1167 21.3167 59.0167 21.2667C58.8 21.1667 58.5167 21.0333 58.2667 20.8333C58.1167 20.7167 57.9667 20.6 57.8334 20.4667C57.6834 20.3333 57.5334 20.2 57.3667 20.1C56.9667 19.8667 56.6667 19.6833 56.3334 19.55C56.3 19.55 56.2 19.55 56.1167 19.55C55.85 19.55 55.5167 19.55 55.1501 19.4667C54.7834 19.3667 54.5001 19.2 54.2667 19.05C54.1834 19 54.1167 18.95 54.0167 18.9167C53.8834 18.9167 53.6667 18.9167 53.4667 18.9333C53.2834 18.9333 53.0834 18.95 52.9001 18.95C52.8667 18.95 52.8 19.0167 52.7167 19.05C52.4667 19.1667 52.1667 19.3 51.7834 19.35L51.5501 19.3833C51.25 19.4167 50.9667 19.45 50.6667 19.5333C50.1834 19.6667 49.7667 19.5833 49.4501 19.5167C49.4001 19.5167 49.3501 19.5 49.3 19.4833C48.9834 19.6167 48.6667 19.7833 48.3667 19.95C48.4334 19.9333 48.3667 20 48.3334 20.0833C48.1834 20.3333 47.9834 20.6833 47.6334 20.95C47.4167 21.1167 47.1667 21.25 46.9167 21.3667C46.8167 21.4167 46.65 21.5 46.6167 21.5333C46.5 21.9333 46.3667 22.3167 45.9334 22.7333C45.7167 22.95 45.6167 23.0667 45.5167 23.1667C45.4001 23.3 45.2667 23.4333 45.0167 23.7C44.5167 24.2 43.9667 24.3 43.6501 24.3333C43.6001 24.6167 43.4667 25.05 43.0167 25.5C42.8667 25.65 42.8 25.75 42.7334 25.8333C42.6 26.0167 42.4834 26.2167 42.1667 26.5333C41.8 26.9 41.4834 27.05 41.2167 27.1667C41.15 27.2 41.0945 27.2389 41.05 27.2833C40.7667 27.5667 40.6001 27.7 40.4334 27.8333C40.3334 27.9167 40.2334 27.9833 40.0501 28.1667C39.9001 28.5667 39.7667 28.9333 39.35 29.35C39.0834 29.6167 38.5334 30.1167 37.9167 30.4333C37.4167 30.6833 36.7834 30.8833 36.2 30.9833C35.6667 31.0667 35.1667 30.95 34.7667 30.8667C34.6501 30.8333 34.55 30.8167 34.4501 30.8C33.85 30.7167 33.2834 30.6167 32.75 30.35C32.1667 30.05 31.6667 29.6167 31.35 29.2833C30.85 28.7833 30.6167 28.1667 30.4334 27.6833L30.3167 27.3833C30.0501 26.75 30.0667 26.1333 30.0834 25.6333V25.3167C30.0834 24.5667 30.2667 23.9833 30.5334 23.3333C30.7834 22.7167 31.1 22.2333 31.6 21.7333C31.65 21.35 31.75 20.85 32.25 20.35C32.5334 20.0667 32.6667 19.95 32.8167 19.8167C32.9167 19.7333 33.0334 19.6333 33.2334 19.4333C33.6501 19.0167 34 18.8833 34.2001 18.7833C34.2667 18.75 34.3223 18.7167 34.3667 18.6833C34.7334 18.3167 35.0167 18.1667 35.2001 18.0667C35.3167 18 35.35 17.9833 35.4501 17.8833C35.5334 17.8 35.5334 17.8 35.5834 17.6833C35.7001 17.4167 35.85 17.1333 36.2167 16.7833C36.35 16.65 36.3834 16.6 36.4501 16.4833C36.5834 16.2667 36.7334 16.05 37.05 15.7333C37.35 15.4333 37.5167 15.3167 37.6834 15.1833C37.7834 15.1167 37.8834 15.0333 38.05 14.8667C38.2167 14.7 38.2834 14.6 38.3667 14.5C38.5 14.3333 38.6167 14.15 38.9334 13.85C39.2667 13.5167 39.65 13.35 39.9334 13.2333C40.0167 13.2 40.1167 13.1667 40.1834 13.1167C40.1334 13.15 40.1667 13.0667 40.1834 13C40.3167 12.6833 40.5167 12.2333 40.9667 11.8833C41.35 11.6 41.75 11.3167 42.1334 11.0667C42.4001 10.9 42.6834 10.75 42.9834 10.6167C43.1167 10.55 43.2667 10.4833 43.4001 10.4167C43.7501 10.2167 44.1167 10.1333 44.4167 10.0667C44.55 10.0333 44.7001 10 44.7667 9.96667C45.1001 9.81667 45.4501 9.73334 45.7167 9.68334C45.8501 9.65 45.9834 9.63334 46.1167 9.58334C46.2334 9.53334 46.3501 9.46667 46.4501 9.4C46.7001 9.25 47 9.06667 47.3834 8.96667C47.7334 8.86667 48.1001 8.78334 48.4667 8.7L48.75 8.63334C48.75 8.63334 48.9501 8.55 49.0334 8.5C49.3167 8.36667 49.65 8.18334 50.0834 8.13334C50.65 8.05 51.1334 8.26667 51.4501 8.4C51.4667 8.4 51.4834 8.4 51.5 8.41667C51.5 8.41667 51.5334 8.4 51.5501 8.38334C51.8501 8.18334 52.3167 7.86667 52.9167 7.86667C53.3834 7.86667 53.7667 8.01667 54.0501 8.11667C54.1501 8.15 54.2334 8.2 54.3334 8.21667C54.75 8.25 55.2667 8.21667 55.7167 8.26667C56.1001 8.31667 56.4334 8.45 56.7001 8.55C56.8167 8.6 56.9501 8.65 57.0667 8.68334C57.1167 8.68334 57.2667 8.68334 57.3667 8.68334C57.6667 8.68334 58.0667 8.65 58.5 8.76667C58.9834 8.9 59.3167 9.2 59.5667 9.41667C59.6167 9.45 59.6501 9.5 59.7001 9.53334C59.75 9.53334 59.8 9.53334 59.8501 9.53334C60.1834 9.5 60.7001 9.45 61.2167 9.68334C61.6167 9.86667 61.9167 10.15 62.1334 10.3667C62.2001 10.4333 62.3167 10.55 62.3501 10.5667C62.7834 10.8 63.1834 11.0167 63.5667 11.2667C63.6167 11.2833 63.7501 11.3333 63.8501 11.3667C64.1501 11.4667 64.5167 11.5833 64.8834 11.85C65.2167 12.1 65.4501 12.4167 65.6167 12.6667C65.6834 12.7667 65.7834 12.9 65.8334 12.9333C66.0667 13.1333 66.2834 13.3667 66.5001 13.6167C66.6001 13.7333 66.7001 13.8333 66.8001 13.95C66.9001 14.05 67.0167 14.1167 67.1167 14.2C67.3501 14.3667 67.6334 14.5667 67.8834 14.85C67.9834 14.9667 68.0834 15.0833 68.2 15.1833C68.4167 15.4167 68.6501 15.65 68.8334 15.9C68.9167 16.0167 69.0167 16.1333 69.1167 16.25C69.3167 16.5 69.5334 16.75 69.7001 17.0167C69.9501 17.4167 70.0334 17.8333 70.1001 18.15C70.1167 18.25 70.1334 18.3333 70.1667 18.4167C70.3667 18.7833 70.4334 19.15 70.4834 19.45C70.5001 19.55 70.5334 19.7167 70.5501 19.75L70.7334 20.1167C70.8667 20.4167 71.0167 20.7 71.1334 21.0167C71.3001 21.45 71.4501 21.8833 71.5667 22.3333C71.6 22.4667 71.6667 22.6167 71.7167 22.75C71.8334 23.05 71.9334 23.3333 72.0001 23.65C72.0001 23.7 72.0834 23.85 72.1334 23.95C72.2667 24.2167 72.4334 24.5667 72.5001 25C72.5167 25.1333 72.5667 25.2667 72.6001 25.4167C72.6834 25.7 72.7667 26.0167 72.8 26.4C72.8334 26.7667 72.8167 27.1667 72.8167 27.5333V27.8167C72.8167 28.2833 72.6667 28.6667 72.55 28.9667C72.5167 29.05 72.4667 29.15 72.4501 29.2333C72.4501 29.3667 72.4501 29.5167 72.4501 29.6833C72.4501 30 72.4501 30.3167 72.4 30.6333C72.3834 30.7667 72.3834 30.9167 72.3834 31.0667C72.3834 31.4 72.3667 31.7333 72.3001 32.05C72.2334 32.3667 72.1167 32.6667 71.9834 32.9667C71.9334 33.1 71.8667 33.2333 71.8334 33.3833C71.8 33.5 71.8 33.6333 71.7834 33.7667C71.75 34.05 71.7167 34.4167 71.5834 34.8C71.3667 35.3667 70.9167 35.6833 70.6167 35.9C70.6667 36.2667 70.7334 36.8333 70.4334 37.3833C70.2167 37.7667 69.9334 38.0333 69.7001 38.25C69.6167 38.3167 69.5001 38.4333 69.4667 38.4667C69.4501 38.5 69.4001 38.65 69.3667 38.75C69.2667 39.05 69.1501 39.4167 68.8834 39.7667C68.5667 40.1833 68.1501 40.4 67.85 40.5333C67.7667 40.5667 67.7001 40.6 67.6334 40.65C67.6334 40.65 67.6 40.7667 67.55 40.8667C67.4167 41.1333 67.25 41.5 66.9334 41.8167C66.8001 41.95 66.7667 42 66.7001 42.1167C66.5834 42.3 66.4334 42.5333 66.1001 42.8667C65.75 43.2167 65.4834 43.3667 65.2334 43.4833C65.1167 43.55 65.1001 43.55 65 43.65C64.8834 43.7667 64.85 43.8167 64.7834 43.9333C64.6501 44.1667 64.5 44.4 64.1667 44.7333C63.7334 45.1667 63.3501 45.3 63.0167 45.3833C62.8001 45.5667 62.7334 45.6667 62.6667 45.75C62.5334 45.9333 62.4167 46.1167 62.1 46.4167C61.9 46.6167 61.8167 46.7167 61.7167 46.8333C61.6 46.9833 61.4667 47.1167 61.2001 47.4C60.9501 47.65 60.8167 47.7667 60.7 47.8833C60.5834 47.9833 60.4667 48.1 60.2501 48.3167C59.9834 48.5833 59.8334 48.7167 59.6834 48.8333C59.5667 48.9333 59.4667 49.0167 59.2667 49.2167C59.1667 49.3167 59.0834 49.4333 58.9834 49.5333C58.6667 49.9167 58.2667 50.4 57.6334 50.6667C56.9167 50.9667 56.0834 51 55.4501 51L55.3834 51.0667ZM52.1834 45.85C52.1834 45.85 52.2501 45.9167 52.2834 45.95C52.4834 46.15 52.7167 46.3833 52.9001 46.7333C53.0167 46.95 53.1834 47.1333 53.4501 47.4C53.6167 47.5667 53.7667 47.75 53.9167 47.9333C54.0167 48.0667 54.1667 48.25 54.2334 48.3C54.6334 48.4667 55.0667 48.5667 55.3834 48.5667C55.6 48.5667 56.2501 48.5667 56.6167 48.4167C56.6834 48.3667 56.8834 48.15 57.0001 48C57.1501 47.8333 57.2834 47.65 57.4334 47.5C57.7001 47.2333 57.85 47.1 58 46.9833C58.1 46.8833 58.2167 46.8 58.4167 46.6C58.6667 46.35 58.7834 46.2333 58.9167 46.1167C59.0334 46.0167 59.15 45.9 59.3667 45.6833C59.5667 45.4833 59.6667 45.3667 59.75 45.2667C59.8667 45.1167 60 44.9833 60.2667 44.7C60.4334 44.5333 60.5 44.45 60.5667 44.35C60.7001 44.1667 60.8167 43.9833 61.1334 43.6833C61.5667 43.25 61.9501 43.1167 62.2834 43.0333C62.4667 42.8833 62.4834 42.85 62.55 42.7333C62.6834 42.5 62.8334 42.2667 63.1667 41.9333C63.5167 41.5833 63.7834 41.4333 64.0334 41.3C64.15 41.2333 64.1667 41.2333 64.2667 41.1333C64.4001 41 64.4334 40.95 64.5167 40.8167C64.6167 40.65 64.7667 40.4 65.1167 40.0667C65.1334 40.0333 65.2001 39.9 65.2501 39.8167C65.3667 39.5667 65.5001 39.2667 65.7501 38.9833C66.0501 38.6333 66.4334 38.45 66.7001 38.3167C66.7667 38.2833 66.8501 38.25 66.9001 38.2167C66.8501 38.2333 66.9001 38.1 66.9334 38C67.0167 37.75 67.1167 37.4333 67.3167 37.1167C67.5167 36.8 67.7667 36.5833 67.9667 36.4C68 36.3667 68.0501 36.3167 68.1001 36.2833C68.1001 36.25 68.1001 36.2333 68.1001 36.2167C68.0667 35.8833 68 35.3667 68.2334 34.85C68.4667 34.35 68.8834 34.0667 69.1501 33.8667C69.1834 33.85 69.2167 33.8333 69.2334 33.8C69.2334 33.7167 69.2501 33.6167 69.2667 33.5333C69.3001 33.25 69.3334 32.95 69.4001 32.6833C69.4667 32.4667 69.5501 32.2333 69.6501 32.0167C69.7167 31.85 69.7834 31.7 69.8334 31.5333C69.8667 31.3667 69.8667 31.2 69.8667 31.0333C69.8667 30.7833 69.8667 30.55 69.9167 30.3C69.9501 30.0833 69.9501 29.8833 69.9501 29.6667C69.9501 29.4667 69.9501 29.2667 69.9667 29.0667C70 28.6667 70.1167 28.35 70.2167 28.0833C70.2501 28 70.3 27.85 70.3167 27.8V27.5333C70.3167 27.2167 70.3167 26.8833 70.3167 26.5833C70.3167 26.4833 70.25 26.3 70.2001 26.1167C70.1334 25.8667 70.0667 25.6167 70.0334 25.3667C70.0334 25.3167 69.9501 25.1667 69.9 25.0667C69.7834 24.8333 69.6501 24.55 69.5667 24.2C69.5334 24.0167 69.4501 23.85 69.3834 23.6667C69.3001 23.4667 69.2334 23.2667 69.1667 23.05C69.0501 22.65 68.9167 22.2833 68.7834 21.9C68.7001 21.6667 68.5834 21.45 68.4834 21.2333L68.2834 20.8C68.1334 20.4833 68.0834 20.1667 68.0334 19.9C68.0167 19.8 67.9834 19.6333 67.9667 19.6C67.7667 19.25 67.7001 18.9 67.6501 18.6167C67.6334 18.5167 67.6167 18.4333 67.5834 18.3333C67.4834 18.2 67.3501 18.0333 67.2001 17.8667C67.0667 17.7167 66.9501 17.5667 66.8334 17.4C66.7001 17.2167 66.5501 17.0667 66.3834 16.9C66.2501 16.7667 66.1167 16.6167 66 16.4833C65.9334 16.4167 65.8001 16.3167 65.6667 16.2167C65.4501 16.05 65.2334 15.9 65.0334 15.7C64.9001 15.5667 64.7667 15.4333 64.6501 15.2833C64.5001 15.1167 64.35 14.95 64.1834 14.8C63.9167 14.5667 63.7334 14.3167 63.5834 14.1C63.5167 14 63.4167 13.8667 63.3667 13.8333C63.3334 13.8333 63.1834 13.7667 63.0834 13.75C62.8334 13.6667 62.5001 13.5667 62.1834 13.3667C61.8501 13.15 61.5167 12.9667 61.1667 12.7833C60.7834 12.5667 60.55 12.3333 60.35 12.15C60.3 12.1 60.25 12.05 60.2001 12C60.15 12 60.1167 12 60.0667 12C59.7334 12.0333 59.3 12.0833 58.8334 11.9C58.4167 11.75 58.1334 11.4833 57.9167 11.3C57.8501 11.25 57.7834 11.1833 57.7167 11.1333C57.7667 11.1667 57.6001 11.1667 57.5 11.1667C57.2334 11.1667 56.9 11.2 56.5334 11.1167C56.2667 11.0667 56.0167 10.9667 55.7667 10.8667C55.6167 10.8 55.4501 10.75 55.3667 10.7333C55.1834 10.7 54.9834 10.7167 54.8001 10.7167C54.5667 10.7167 54.3667 10.7167 54.1501 10.7167C53.7501 10.6833 53.4334 10.5667 53.1667 10.4667C53.1167 10.45 53.0667 10.4333 53.0167 10.4167C53 10.4167 52.9667 10.45 52.9501 10.4667C52.6667 10.6667 52.2501 10.9333 51.7167 10.9667C51.2001 11 50.7834 10.8167 50.4667 10.6833C50.4334 10.6833 50.4 10.65 50.35 10.6333C50.2834 10.6667 50.2167 10.7 50.1501 10.7333C49.9167 10.85 49.6167 11 49.2667 11.0833L48.9667 11.15C48.6667 11.2167 48.3667 11.2833 48.0667 11.3667C47.9834 11.3833 47.85 11.4833 47.7167 11.55C47.4834 11.7 47.2334 11.8333 46.9834 11.9167C46.7334 12 46.4834 12.0667 46.2334 12.1167C46.05 12.15 45.9001 12.1833 45.8 12.2333C45.5 12.3667 45.2001 12.4333 44.9501 12.5C44.8334 12.5333 44.6501 12.5667 44.6001 12.6C44.4167 12.7 44.2167 12.7833 44.0334 12.8833C43.8501 12.9667 43.6501 13.05 43.4834 13.1667C43.1334 13.3833 42.7834 13.6333 42.4667 13.8833C42.5334 13.8333 42.5167 13.9167 42.4667 13.9833C42.3334 14.2833 42.1667 14.6833 41.7834 15.0167C41.4834 15.2833 41.1667 15.4167 40.9001 15.5333C40.8167 15.5667 40.7167 15.6 40.65 15.65C40.5167 15.8 40.4334 15.9 40.3667 15.9833C40.2334 16.15 40.1167 16.3333 39.8 16.6333C39.5 16.9333 39.3334 17.05 39.1667 17.1833C39.0667 17.25 38.9667 17.3333 38.8001 17.5C38.6667 17.6333 38.6334 17.6833 38.5667 17.8C38.4334 18.0167 38.2834 18.2333 37.9667 18.55C37.8834 18.6333 37.8834 18.6333 37.8334 18.75C37.7167 19.0167 37.5667 19.3 37.2 19.65C36.8334 20.0167 36.55 20.1667 36.3667 20.2667C36.25 20.3333 36.2167 20.35 36.1167 20.45C35.7001 20.8667 35.35 21 35.15 21.1C35.0834 21.1333 35.0278 21.1667 34.9834 21.2C34.7 21.4833 34.5667 21.6 34.4167 21.7333C34.3167 21.8167 34.2334 21.9 34.0667 22.05C34.0167 22.4333 33.9167 22.9333 33.4167 23.4333C33.1167 23.7333 32.9667 23.9667 32.8334 24.2833C32.6667 24.7 32.5834 24.9667 32.5834 25.3V25.7C32.5667 26 32.55 26.2667 32.6167 26.4167L32.7667 26.8C32.8667 27.0833 32.9834 27.4 33.1167 27.5167C33.3834 27.7833 33.6667 28 33.8834 28.1167C34.05 28.2 34.4 28.25 34.6834 28.3C34.9834 28.35 35.1501 28.3833 35.3167 28.4167C35.4834 28.45 35.7334 28.5167 35.8167 28.5C36.1334 28.45 36.5167 28.3333 36.7834 28.2C37 28.1 37.3 27.85 37.5834 27.5833C37.7334 27.1833 37.8667 26.8167 38.2834 26.4C38.5667 26.1167 38.7334 25.9833 38.9 25.85C39 25.7667 39.1 25.7 39.2834 25.5167C39.65 25.15 39.9667 25 40.2334 24.8833C40.3 24.85 40.3556 24.8111 40.4001 24.7667C40.55 24.6167 40.6167 24.5167 40.6834 24.4333C40.8167 24.25 40.9334 24.05 41.25 23.7333C41.2834 23.4667 41.3834 22.9833 41.8834 22.4833C42.4334 21.9333 43.0167 21.8833 43.3167 21.85C43.4834 21.6833 43.5667 21.5833 43.6501 21.5C43.7667 21.3667 43.9001 21.2333 44.1501 20.9667C44.2834 20.5667 44.4167 20.1833 44.8334 19.7667C45.1501 19.45 45.5167 19.2667 45.8 19.1333C45.9001 19.0833 46.0167 19.0333 46.1 18.9667C46.1 18.95 46.15 18.8667 46.2001 18.8C46.3834 18.5 46.6334 18.0833 47.1167 17.8C47.5501 17.55 48.0167 17.3167 48.4667 17.1333C49.0167 16.9 49.5667 17 49.9167 17.0667C50.0001 17.0667 50.0667 17.1 50.1501 17.1C50.4334 17.0167 50.8334 16.95 51.25 16.9L51.4667 16.8667C51.4667 16.8667 51.6167 16.8 51.6834 16.7667C52.0667 16.6 52.6501 16.4667 53.3167 16.4333C53.6834 16.4167 54.05 16.4 54.4001 16.4333C54.9001 16.5 55.2834 16.7333 55.5667 16.9C55.6501 16.95 55.7167 17 55.8 17.0333C55.8667 17.0333 55.9667 17.0333 56.0501 17.0333C56.3667 17.0333 56.8167 17.0167 57.2834 17.2C57.7001 17.3833 58.1167 17.6167 58.5167 17.85C58.9167 18.0833 59.1834 18.3167 59.4667 18.55C59.5667 18.6333 59.6667 18.7333 59.7834 18.8167C59.8334 18.85 59.9834 18.9167 60.0834 18.9667C60.3834 19.1 60.7501 19.2833 61.0834 19.6167C61.4167 19.95 61.5834 20.3167 61.7334 20.6167C61.7834 20.7167 61.8501 20.8667 61.8834 20.9167C62.1501 21.2667 62.2834 21.6167 62.4 21.9C62.4501 22.0167 62.4834 22.1333 62.55 22.2333C62.55 22.2333 62.6334 22.2667 62.7001 22.3333C62.9667 22.5333 63.3667 22.85 63.5834 23.3833C63.7334 23.7667 63.8001 24.15 63.8501 24.45C63.8667 24.5833 63.8834 24.7167 63.9167 24.85C64.0167 25.25 64.0834 25.6667 64.1334 26.1L64.2001 26.65C64.2667 27.0333 64.3167 27.4167 64.3167 27.8C64.3167 28.2667 64.1667 28.6667 64.0667 28.95C64.0334 29.05 63.9834 29.2 63.9667 29.25C63.9167 29.65 63.7834 30 63.6834 30.2833C63.6334 30.4 63.6001 30.5333 63.5501 30.6667C63.5501 30.7333 63.5501 30.8167 63.5501 30.9167C63.5501 31.25 63.5834 31.6833 63.3834 32.1667C63.1834 32.6333 62.8667 32.9333 62.6334 33.1667C62.5667 33.2333 62.5001 33.2833 62.4501 33.35C62.3834 33.45 62.35 33.5667 62.2834 33.6833C62.1667 33.95 62.0167 34.3 61.7667 34.6167C61.6834 34.7167 61.6334 34.8333 61.5667 34.95C61.4167 35.2167 61.2167 35.55 60.9167 35.8333C60.6334 36.1167 60.4834 36.2333 60.3334 36.3667C60.2334 36.45 60.1167 36.55 59.9334 36.7333C59.85 36.8333 59.8334 36.85 59.7667 36.9667C59.6334 37.2167 59.4834 37.4833 59.1501 37.8333C58.7334 38.25 58.3667 38.3833 58.0667 38.4833C57.6834 38.8167 57.5334 38.9333 57.3834 39.0667C57.2834 39.15 57.1834 39.2333 56.9834 39.4167C56.8167 39.8333 56.6834 40.1833 56.2667 40.5833C55.9334 40.9167 55.7001 41.0667 55.5334 41.1667C55.4167 41.2333 55.3667 41.2833 55.2167 41.4167C54.9167 41.7167 54.7334 41.85 54.55 41.9833C54.4501 42.05 54.35 42.1167 54.1834 42.2833C53.8834 42.5833 53.7167 42.7 53.5501 42.8333C53.4501 42.9167 53.35 42.9833 53.1667 43.1667C52.9001 43.4167 52.6834 43.7167 52.5667 43.95C52.4501 44.1833 52.3834 44.6167 52.3334 44.9L52.2667 45.2833C52.2334 45.4167 52.2001 45.6167 52.1834 45.7667V45.85Z" fill="#031F39"></path><path d="M30.2667 72.7333C29.8834 72.7333 29.5667 72.6333 29.3167 72.5667C29.2334 72.5333 29.1501 72.5 29.0667 72.5C28.9667 72.5 28.8167 72.5333 28.6834 72.5667C28.3667 72.6167 28.05 72.6667 27.7334 72.6667H27.3C26.9667 72.6833 26.6501 72.7 26.3334 72.6667C25.9334 72.6333 25.5334 72.5833 25.1167 72.5167L24.9334 72.4833C24.6167 72.4333 24.3001 72.3667 23.9834 72.2833L23.5667 72.1833C23.4834 72.1833 23.3834 72.1833 23.2834 72.1833C22.9834 72.2167 22.5667 72.25 22.1167 72.1167C21.8167 72.0333 21.5167 71.9 21.2167 71.7667C21.0834 71.7 20.9334 71.6333 20.8 71.5833C20.4834 71.4667 20.1667 71.3167 19.85 71.1667L19.5 71C19.0667 70.8 18.7834 70.5 18.5667 70.2667C18.5001 70.2 18.4501 70.1167 18.3667 70.0667L18.0167 69.8833C17.7334 69.7333 17.4334 69.5833 17.1667 69.4C17.1834 69.4333 17.1167 69.4167 17.0334 69.4C16.7001 69.35 16.2 69.2833 15.75 68.95C15.45 68.7333 15.2334 68.4667 15.0334 68.25C14.9334 68.1333 14.85 68.0333 14.7334 67.9333C14.6167 67.8333 14.5 67.7333 14.3834 67.65C14.1334 67.45 13.8834 67.25 13.65 67.0333C13.3834 66.7667 13.1167 66.4667 12.8667 66.1833L12.7 65.9833C12.4834 65.75 12.3167 65.4667 12.1334 65.2C12.05 65.0667 11.9667 64.9333 11.8834 64.8167C11.7 64.5667 11.5334 64.2833 11.3834 64C11.3167 63.8667 11.25 63.7333 11.1667 63.6C10.9667 63.2833 10.85 62.9667 10.75 62.7167C10.7 62.5833 10.65 62.45 10.5834 62.3333C10.55 62.2833 10.4667 62.2167 10.4 62.15C10.1667 61.9333 9.86672 61.65 9.66672 61.2167C9.53338 60.9333 9.43338 60.6167 9.33338 60.3167C9.28338 60.1667 9.25005 60.0333 9.18338 59.8833C9.01672 59.4333 9.03338 59 9.05005 58.6833C9.05005 58.6 9.06672 58.5 9.05005 58.4167C9.05005 58.3833 8.96672 58.25 8.90005 58.1333C8.76672 57.8833 8.58338 57.55 8.50005 57.15C8.43338 56.8333 8.40005 56.5167 8.36672 56.2C8.36672 56.05 8.33338 55.9 8.31672 55.75C8.30005 55.6167 8.25005 55.4833 8.21672 55.35C8.13338 55.0833 8.03338 54.75 8.00005 54.3667C8.00005 54.2333 7.95005 54.0833 7.93338 53.95C7.86672 53.6167 7.80005 53.3 7.80005 52.9667C7.80005 52.5 7.96672 52.1 8.08338 51.8167C8.11672 51.7333 8.16672 51.65 8.18338 51.55C8.18338 51.5 8.15005 51.4167 8.11672 51.3167C8.03338 51.0167 7.93338 50.6 8.00005 50.1333C8.05005 49.8167 8.13338 49.5 8.25005 49.1833C8.30005 49.0333 8.35005 48.9 8.38338 48.75C8.48338 48.3167 8.66672 48 8.81672 47.7333C8.86672 47.6333 8.95005 47.5 8.96672 47.45C9.00005 47.3167 9.05005 47.1667 9.08338 47.0167C9.16672 46.7 9.23338 46.4 9.35005 46.1C9.46672 45.7833 9.60005 45.4833 9.75005 45.2L9.93338 44.8333C10.0834 44.5 10.3 44.2167 10.45 44C10.5334 43.8833 10.6167 43.7833 10.6834 43.65C10.6834 43.65 10.6834 43.5833 10.6834 43.5C10.7167 43.15 10.75 42.6833 11.05 42.2333C11.2667 41.9 11.5167 41.6667 11.7334 41.4667C11.8334 41.3833 11.9334 41.3 12.0167 41.1833C12.2834 40.8333 12.5834 40.6167 12.8334 40.45C12.9167 40.3833 13.05 40.3 13.0834 40.2667C13.1167 40.2333 13.1834 40.0833 13.2334 40C13.3667 39.7333 13.5334 39.4 13.85 39.0833C14.1667 38.7667 14.3334 38.65 14.5167 38.5167C14.6167 38.45 14.7167 38.3833 14.8834 38.2167C15.1501 37.95 15.2834 37.8333 15.4167 37.7167C15.5334 37.6167 15.65 37.5167 15.85 37.3C16.0167 36.8833 16.1667 36.5333 16.5667 36.1333C16.9667 35.7333 17.3334 35.5833 17.6334 35.4833C17.9167 35.25 17.9834 35.1667 18.05 35.0667C18.1834 34.8833 18.3 34.7167 18.6167 34.4167C18.7834 34 18.9167 33.65 19.3334 33.25C19.6 32.9833 19.7334 32.8667 19.8667 32.75C19.9834 32.65 20.0834 32.55 20.3 32.35C20.8334 31.8167 21.3667 31.75 21.65 31.7C22 31.35 22.3834 31.0667 22.9 30.8167C22.9334 30.7833 23 30.7333 23.05 30.6667C23.3167 30.4 23.7334 30.0167 24.3667 29.9167C24.9167 29.8333 25.4001 29.9667 25.75 30.0667C25.85 30.1 25.9501 30.1333 26.0667 30.15C26.1334 30.15 26.2334 30.15 26.3167 30.15C26.6834 30.1167 27.25 30.0667 27.8167 30.35C28.1501 30.5167 28.7834 30.8833 29.2834 31.3833C29.8 31.9 29.8334 32.5833 29.85 32.9833C29.85 33.05 29.85 33.1333 29.85 33.2C29.85 33.1333 29.9 33.1833 29.95 33.2333C30.2167 33.5 30.6334 33.9167 30.7334 34.5667L30.7667 34.8C30.85 35.2333 30.9334 35.7833 30.85 36.3333C30.7667 36.8833 30.4667 37.3167 30.25 37.6333C30.1834 37.7333 30.1167 37.8167 30.0667 37.9167C29.8001 38.45 29.4167 38.8333 29.0834 39.1667L28.9501 39.35C28.85 39.6667 28.7 40.0167 28.2834 40.4333C28.0667 40.65 27.9667 40.75 27.8667 40.8667C27.75 41 27.6167 41.15 27.35 41.4L26.4 42.3333C26.0667 42.6667 25.8334 42.8167 25.5834 42.95C25.4667 43.0167 25.4334 43.0333 25.3167 43.15C25.15 43.3167 25.0667 43.4167 25 43.5167C24.8667 43.6833 24.75 43.8667 24.45 44.15C24.2 44.4 24.0667 44.5333 23.9334 44.65C23.8167 44.75 23.7 44.85 23.5 45.0667C23.1667 45.4 22.9 45.55 22.65 45.6833C22.5334 45.75 22.5167 45.75 22.4167 45.85C22.0834 46.1833 21.8501 46.3333 21.6167 46.4667C21.5001 46.5333 21.4667 46.55 21.3501 46.6667L21.1334 46.8667C20.9334 47.0667 20.7 47.2833 20.5334 47.5C20.3334 47.7667 20.1334 48.05 19.9667 48.3333C19.9667 48.3833 19.9667 48.4333 19.9667 48.4833C20 48.8167 20.05 49.2667 19.8667 49.7333L19.7334 50.0833C19.6334 50.3167 19.5334 50.5333 19.4834 50.7833C19.4 51.1167 19.25 51.4 19.1334 51.6167C19.0834 51.7 19.0167 51.8333 19 51.8833C18.9667 52.1 18.9001 52.3667 18.8334 52.6167C18.8 52.75 18.7334 52.95 18.7334 53.0167C18.7334 53.0667 18.8 53.2333 18.8334 53.35C18.9167 53.5833 19.0001 53.8667 19.05 54.1833C19.05 54.2833 19.1334 54.45 19.2001 54.6167C19.2834 54.8333 19.3667 55.05 19.4167 55.2833C19.4667 55.45 19.5001 55.6333 19.5334 55.8C19.5667 56 19.6 56.2 19.6834 56.3833C19.7501 56.5667 19.8667 56.7333 19.9667 56.9C20.0667 57.05 20.1667 57.2167 20.25 57.3667C20.4334 57.6833 20.5 58 20.5667 58.25C20.5667 58.3 20.5834 58.35 20.6 58.4C20.6334 58.4 20.65 58.4167 20.6834 58.4333C20.9667 58.55 21.3667 58.7 21.7 59.0333C21.9667 59.3 22.2334 59.5333 22.5334 59.7667C22.6667 59.8667 22.8 59.9833 22.9334 60.1C23.0834 60.2333 23.2334 60.3667 23.4167 60.4667C23.6501 60.6 23.8667 60.7667 24.0667 60.95C24.15 61.0333 24.3001 61.15 24.35 61.1667C24.5501 61.25 24.75 61.3667 24.9667 61.4667C25.1334 61.5667 25.3 61.65 25.4 61.6833C25.4667 61.7 25.6667 61.6833 25.8334 61.6833C26.0834 61.6833 26.3334 61.6833 26.5834 61.7167C26.9667 61.7667 27.35 61.8167 27.7334 61.8167C27.7667 61.8167 27.9167 61.75 28 61.7167C28.2334 61.6333 28.5167 61.5167 28.85 61.4833C29.3167 61.4167 29.7167 61.55 30.0334 61.65C30.25 61.3833 30.5334 61.05 31 60.8667C31.35 60.7333 31.6667 60.6833 31.9167 60.65C32.0167 60.65 32.1 60.65 32.1834 60.6167C32.3334 60.5333 32.4834 60.3833 32.65 60.25C32.7834 60.1333 32.9167 60.0333 33.05 59.9333C33.2334 59.7833 33.4501 59.6667 33.6667 59.5333C33.8167 59.45 33.9834 59.35 34.0334 59.3C34.0334 59.3 34.0667 59.2444 34.1334 59.1333C34.2167 58.9167 34.3667 58.5667 34.7834 58.1667C35.2167 57.7333 35.6 57.6 35.9167 57.5C36 57.2167 36.0834 56.7167 36.6 56.2C37.0167 55.7833 37.3667 55.6333 37.5834 55.55C37.65 55.5278 37.7056 55.4944 37.75 55.45L38.1834 55C38.3 54.8667 38.4167 54.75 38.6667 54.5C38.6667 54.5 38.7001 54.4444 38.7667 54.3333C38.85 54.1167 39 53.7667 39.4167 53.35C39.7834 52.9833 40.0667 52.8333 40.3334 52.7167C40.4501 52.6667 40.4501 52.6667 40.5334 52.5833C40.8167 52.3 40.9667 52.1833 41.1167 52.05C41.2167 51.9667 41.3334 51.8833 41.5167 51.6833C41.5834 51.6167 41.6334 51.5167 41.7001 51.4333C41.9167 51.1 42.2001 50.65 42.7334 50.3833C43.3 50.1 43.8834 50.15 44.25 50.2C44.35 50.2 44.4334 50.2333 44.5167 50.2167C44.6 50.2167 44.7001 50.1667 44.8167 50.15C45.1667 50.05 45.6667 49.9167 46.2167 50C46.75 50.0833 47.3501 50.2 47.9167 50.4667C48.3167 50.6667 48.9334 50.9833 49.4001 51.45C49.8334 51.8833 49.9667 52.4 50.0834 52.7833C50.1167 52.8833 50.1334 52.9667 50.1667 53.05C50.4334 53.5667 50.4334 54.05 50.4334 54.4167C50.4334 54.5167 50.4334 54.6 50.4334 54.7C50.5167 55.2 50.5834 55.7 50.4834 56.3167C50.4001 56.9 50.2334 57.3667 49.9834 57.8667L49.8834 58.05C49.7167 58.4 49.5 58.8333 49.1 59.25C49.0167 59.3333 49.0167 59.3333 48.9667 59.45C48.85 59.7167 48.7001 60.0167 48.3334 60.3833C48.2001 60.5167 48.1667 60.5667 48.0834 60.7C47.9667 60.8667 47.8334 61.1167 47.4834 61.45C47.2334 61.7 47.1001 61.8167 46.9667 61.95C46.8501 62.05 46.7334 62.1667 46.5167 62.3833C46.0834 62.8167 45.7167 62.95 45.4834 63.0333C45.1667 63.3 45.0834 63.4 45 63.5C44.8667 63.6667 44.75 63.8167 44.4667 64.1C44.3167 64.25 44.2834 64.3167 44.2001 64.4167C44.0834 64.5833 43.9501 64.8 43.6167 65.1333C43.3 65.45 43.1167 65.5833 42.9167 65.7C42.8334 65.7667 42.7334 65.8167 42.5834 65.9667C42.4834 66.0667 42.4667 66.1 42.4001 66.2167C42.3001 66.4 42.1501 66.6833 41.7834 67.05C41.35 67.4833 40.8 67.5833 40.4501 67.65C40.3334 68 40.1667 68.5333 39.6667 68.9167C39.3167 69.1833 38.9501 69.3 38.6501 69.4C38.5501 69.4333 38.4 69.4833 38.35 69.5C38.3167 69.5333 38.2 69.65 38.1334 69.7167C37.9334 69.95 37.6667 70.2333 37.2834 70.45C36.8167 70.7 36.35 70.7167 36.0167 70.7333C35.9334 70.7333 35.85 70.7333 35.7667 70.7333C35.7667 70.7333 35.6834 70.8333 35.6 70.9C35.3667 71.0833 35.0667 71.35 34.6501 71.5167C34.5167 71.5667 34.4 71.6333 34.2667 71.7C34 71.8333 33.7167 72 33.35 72.1C32.9501 72.2167 32.5834 72.2167 32.3 72.2167C32.1667 72.2167 32 72.2167 31.9334 72.2333C31.8 72.2667 31.6834 72.3167 31.5501 72.3667C31.2834 72.4667 30.9501 72.6 30.5667 72.65C30.4667 72.65 30.3667 72.6667 30.2834 72.6667L30.2667 72.7333ZM29.0834 70C29.4667 70 29.7834 70.1 30.0334 70.1833C30.1167 70.2167 30.2001 70.2333 30.2834 70.25C30.2834 70.25 30.4501 70.1833 30.6167 70.1167C30.8667 70.0167 31.1334 69.9167 31.3834 69.8667C31.7 69.8 32.0167 69.8 32.2667 69.8C32.4001 69.8 32.5834 69.8 32.65 69.7833C32.75 69.75 32.9167 69.6667 33.0667 69.5833C33.3001 69.4667 33.5334 69.3333 33.7667 69.25C33.8001 69.25 33.9 69.1333 33.9834 69.0667C34.1834 68.9 34.4501 68.6833 34.7834 68.5167C35.2001 68.3167 35.6167 68.3167 35.9167 68.3C36 68.3 36.0834 68.3 36.1501 68.3C36.1501 68.3 36.2001 68.2 36.2667 68.1167C36.4501 67.9167 36.6667 67.6667 36.9834 67.4667C37.3001 67.2667 37.6167 67.1667 37.8667 67.0833C37.9167 67.0833 37.9834 67.05 38.0334 67.0333C38.0334 67.0167 38.0334 66.9833 38.05 66.9667C38.15 66.6333 38.3167 66.15 38.7334 65.7833C39.15 65.4167 39.65 65.3333 39.9834 65.2667C40.0334 65.2667 40.0667 65.2667 40.1167 65.25C40.1501 65.2167 40.1667 65.1667 40.2001 65.1167C40.3001 64.9333 40.4501 64.65 40.8167 64.2833C41.1334 63.9667 41.3167 63.8333 41.5167 63.7167C41.6 63.65 41.7001 63.6 41.8501 63.45C42 63.3 42.0334 63.2333 42.1167 63.1167C42.2334 62.95 42.3667 62.7333 42.7001 62.4C42.8834 62.2167 42.9667 62.1167 43.05 62.0167C43.1834 61.85 43.3 61.7 43.6 61.4C44.0334 60.9667 44.4001 60.8333 44.6334 60.75C45.0167 60.4167 45.1501 60.3 45.2834 60.1667C45.4001 60.0667 45.5167 59.9667 45.7334 59.75C45.8667 59.6167 45.9001 59.5667 45.9667 59.45C46.0834 59.2833 46.2167 59.0333 46.5667 58.7C46.6501 58.6167 46.6501 58.6167 46.7001 58.5C46.8167 58.2333 46.9667 57.9333 47.3334 57.5667C47.4334 57.4667 47.5167 57.3 47.6501 57.05L47.7667 56.8167C47.9001 56.55 47.9667 56.3333 48.0167 56.0167C48.05 55.7833 48.0167 55.5833 47.9667 55.1667C47.9334 54.95 47.9334 54.7167 47.9334 54.5C47.9334 54.4 47.9334 54.2667 47.9334 54.2167C47.8334 54.05 47.7667 53.8 47.6834 53.5333C47.6501 53.4333 47.6167 53.2833 47.5834 53.2333C47.4501 53.1167 47.05 52.9167 46.7834 52.7833C46.5334 52.6667 46.1001 52.6 45.8334 52.55C45.7834 52.55 45.6001 52.6 45.4834 52.6333C45.2834 52.6833 45.0834 52.7333 44.9001 52.7667C44.5667 52.8167 44.25 52.7833 44 52.7667C43.9501 52.7667 43.9167 52.7667 43.8667 52.7667C43.8334 52.8 43.8167 52.85 43.7834 52.9C43.6501 53.1 43.5 53.3333 43.2834 53.55C43 53.8333 42.8501 53.95 42.7001 54.0833C42.6001 54.1667 42.4834 54.25 42.3 54.45C41.9334 54.8167 41.6501 54.9667 41.3834 55.0833C41.2667 55.1333 41.2667 55.1333 41.1834 55.2167C41.1834 55.2167 41.1501 55.2722 41.0834 55.3833C41 55.6 40.8501 55.95 40.4334 56.3667L40 56.8167C39.8834 56.95 39.7667 57.0667 39.5167 57.3167C39.1 57.7333 38.7501 57.8833 38.5334 57.9667C38.4667 57.9889 38.4112 58.0222 38.3667 58.0667C38.3667 58.3167 38.2667 58.8333 37.75 59.35C37.3167 59.7833 36.9334 59.9167 36.6167 60.0167C36.5278 60.0722 36.4667 60.1389 36.4334 60.2167C36.35 60.4333 36.2 60.7833 35.7834 61.1833C35.4834 61.4833 35.15 61.6667 34.8834 61.8333C34.7667 61.9 34.65 61.95 34.55 62.0333C34.45 62.1167 34.35 62.2 34.25 62.2833C33.9667 62.5167 33.6834 62.75 33.3834 62.9333C32.9501 63.1833 32.5167 63.2333 32.2 63.2667C32.1334 63.2667 32.0834 63.2667 32.0167 63.2833C31.9834 63.3167 31.95 63.35 31.9334 63.4C31.7 63.7 31.3334 64.1333 30.7167 64.3C30.1334 64.45 29.6167 64.3 29.2834 64.1667C29.2167 64.15 29.1334 64.1167 29.0667 64.1C29.1 64.1 28.9667 64.1667 28.8834 64.2C28.6 64.3167 28.2 64.4667 27.7334 64.4667C27.2667 64.4667 26.75 64.4 26.2667 64.35C26.15 64.3333 26.0167 64.35 25.8834 64.35C25.5667 64.35 25.1834 64.35 24.7667 64.25C24.3667 64.15 24.0334 63.95 23.75 63.8C23.6334 63.7333 23.5167 63.6667 23.4001 63.6167C22.9834 63.45 22.6834 63.1833 22.4501 62.9833C22.3667 62.9 22.2834 62.8167 22.1834 62.7667C21.8667 62.5833 21.6001 62.3667 21.3334 62.1333C21.2334 62.05 21.1334 61.9667 21.0334 61.8833C20.65 61.5833 20.3 61.2833 19.9501 60.9333C19.9501 60.9667 19.8834 60.9333 19.8167 60.9C19.4834 60.7667 19 60.5833 18.65 60.1167C18.35 59.7167 18.25 59.2833 18.1667 58.9667C18.15 58.8667 18.1334 58.7833 18.1 58.7C18.0334 58.6 17.9667 58.4833 17.9 58.3667C17.7 58.0667 17.5167 57.7667 17.3834 57.4333C17.2501 57.1 17.1834 56.75 17.1167 56.4C17.1 56.2667 17.0667 56.1333 17.0334 56.0167C17 55.8833 16.9501 55.7667 16.9001 55.65C16.8 55.3667 16.6667 55.0167 16.6167 54.6167C16.6167 54.55 16.5667 54.4 16.5167 54.2833C16.4167 53.9833 16.2834 53.6 16.2834 53.15C16.2834 52.7 16.4001 52.35 16.4834 52.05C16.5167 51.9333 16.5667 51.8 16.5834 51.6833C16.6334 51.2167 16.85 50.8333 16.9834 50.5667C17.0334 50.4833 17.1 50.35 17.1167 50.3C17.2167 49.9333 17.35 49.5833 17.4834 49.25L17.6 48.95C17.6 48.95 17.55 48.95 17.55 48.8667C17.5167 48.5 17.45 47.95 17.75 47.4C17.9834 46.9667 18.2834 46.5333 18.5834 46.1333C18.8334 45.8167 19.1334 45.5 19.4334 45.2167L19.6334 45.0333C19.9667 44.7 20.2001 44.55 20.4334 44.4167C20.55 44.35 20.5834 44.3333 20.7 44.2167C21.0334 43.8833 21.3 43.7333 21.5334 43.6C21.65 43.5333 21.6667 43.5333 21.7667 43.4333C22.0167 43.1833 22.1501 43.05 22.3001 42.9333C22.4167 42.8333 22.5167 42.7333 22.7334 42.5167C22.9001 42.35 22.9834 42.25 23.05 42.15C23.1834 41.9833 23.3 41.8 23.6 41.5167C23.9334 41.1833 24.1667 41.0333 24.4167 40.9C24.5334 40.8333 24.5667 40.8167 24.6834 40.7L25.6334 39.7667C25.8501 39.55 25.9501 39.4333 26.0501 39.3333C26.1667 39.2 26.3 39.05 26.55 38.8C26.7001 38.3833 26.85 38.0167 27.2667 37.6167C27.5667 37.3167 27.7834 37.1 27.8667 36.9333C27.9667 36.75 28.0834 36.55 28.2167 36.3667C28.2834 36.2667 28.4 36.1167 28.4167 36.05C28.4167 35.95 28.3667 35.6167 28.3334 35.3833V35.2667C28.3334 35.2667 28.2334 35.2 28.2001 35.1667C28.0167 34.9833 27.7667 34.7333 27.6 34.4C27.4 34 27.3834 33.5833 27.3667 33.2833C27.3667 33.25 27.3667 33.2167 27.3667 33.1833C27.1834 33.0333 26.9501 32.8833 26.6834 32.75C26.7167 32.7833 26.6334 32.8 26.5334 32.8167C26.3 32.8333 26 32.8667 25.6834 32.8167C25.4834 32.7833 25.2834 32.7333 25.0834 32.6667C25.0167 32.65 24.9334 32.6167 24.85 32.6C24.8334 32.6167 24.8167 32.6333 24.7834 32.6667C24.6 32.8333 24.3667 33.0833 24.0334 33.25C23.7667 33.3833 23.5834 33.5167 23.3667 33.7333C22.8334 34.2667 22.3001 34.3333 22.0167 34.3833C21.8167 34.5833 21.6667 34.7167 21.5334 34.8333C21.4167 34.9333 21.3167 35.0333 21.1 35.2333C20.9334 35.65 20.8 36 20.3834 36.4C20.2167 36.5667 20.1501 36.6667 20.0834 36.75C19.9501 36.9333 19.8334 37.1 19.5167 37.4C19.1167 37.8 18.75 37.95 18.45 38.05L18.3 38.15C18.1667 38.5167 18.0167 38.8667 17.6167 39.2833C17.35 39.55 17.2167 39.6667 17.0834 39.8C16.9667 39.9 16.85 40 16.65 40.2167C16.35 40.5167 16.1667 40.65 15.9834 40.7833C15.8834 40.85 15.7834 40.9167 15.6167 41.0833C15.5834 41.1167 15.5167 41.2667 15.4667 41.35C15.35 41.5833 15.2 41.8667 14.9667 42.1333C14.7334 42.4167 14.4667 42.6 14.25 42.7333C14.1667 42.8 14.0334 42.8833 14 42.9167C13.8334 43.1333 13.6334 43.3333 13.4334 43.5167C13.3167 43.6167 13.1834 43.75 13.15 43.8167C13.1834 43.7667 13.1834 43.8667 13.1834 43.9333C13.15 44.25 13.1167 44.6667 12.9 45.0833C12.7834 45.3 12.6334 45.5167 12.4667 45.7167C12.3667 45.8667 12.25 46 12.2167 46.1L12.0167 46.5167C11.9 46.75 11.8 46.9667 11.7 47.2C11.6167 47.4167 11.5667 47.6333 11.5167 47.8333C11.4667 48.0167 11.4334 48.1833 11.3834 48.3667C11.2834 48.7167 11.1167 48.9833 10.9834 49.2167C10.9334 49.3167 10.85 49.45 10.8334 49.5C10.7834 49.7167 10.7167 49.95 10.6334 50.1833C10.5834 50.35 10.5167 50.5167 10.4834 50.7C10.4834 50.7333 10.5167 50.8333 10.55 50.9167C10.6167 51.2 10.7167 51.55 10.6834 51.95C10.65 52.35 10.5167 52.6833 10.4167 52.95C10.3834 53.0333 10.3334 53.1333 10.3167 53.2167C10.3167 53.3333 10.3667 53.5 10.4 53.6667C10.45 53.9167 10.5 54.1667 10.5167 54.4167C10.5167 54.5167 10.5834 54.6833 10.6167 54.85C10.7 55.1 10.7667 55.3667 10.8 55.6167C10.8334 55.8 10.85 55.9833 10.8667 56.15C10.8834 56.3833 10.9167 56.6 10.95 56.8167C10.95 56.8667 11.05 57.0333 11.1 57.1333C11.2167 57.35 11.3667 57.6167 11.45 57.9333C11.5667 58.3333 11.55 58.7167 11.5334 59C11.5334 59.0833 11.5334 59.1833 11.5334 59.2667C11.5834 59.3833 11.6334 59.5667 11.7 59.75C11.7667 59.9667 11.8334 60.1667 11.9167 60.3667C11.95 60.4 12.0167 60.45 12.0834 60.5167C12.2834 60.7 12.55 60.95 12.75 61.3167C12.8667 61.5333 12.9667 61.7667 13.05 62.0167C13.1167 62.1833 13.1834 62.35 13.2334 62.45C13.35 62.6333 13.4667 62.8333 13.5667 63.0333C13.6501 63.2 13.7334 63.3667 13.85 63.5167C13.9667 63.6833 14.0834 63.85 14.2001 64.0333C14.3167 64.2 14.4167 64.3833 14.55 64.5333L14.7334 64.7333C14.95 64.9833 15.1667 65.2333 15.3834 65.45C15.5334 65.6 15.7167 65.7333 15.8834 65.8667C16.0334 65.9833 16.2001 66.1167 16.35 66.2333C16.55 66.4 16.7167 66.6 16.8834 66.8C17 66.9333 17.1334 67.0833 17.2167 67.15C17.1667 67.1 17.2501 67.1 17.3167 67.1167C17.6334 67.1667 18.0667 67.2167 18.4834 67.4833C18.6834 67.6167 18.9167 67.7333 19.1334 67.8333L19.55 68.05C19.9 68.25 20.1667 68.5167 20.35 68.7167C20.4167 68.7833 20.4667 68.85 20.55 68.9167L20.8834 69.0667C21.1334 69.1833 21.3834 69.3 21.6334 69.4C21.8334 69.4667 22.0167 69.5667 22.2167 69.65C22.4 69.7333 22.5834 69.8167 22.7834 69.8833C22.85 69.8833 22.95 69.8833 23.0334 69.8667C23.3167 69.85 23.65 69.8167 24.05 69.9L24.5334 70.0167C24.7667 70.0833 25 70.1333 25.25 70.1667L25.4334 70.2C25.7834 70.25 26.1167 70.3 26.4667 70.3167C26.7001 70.3167 26.95 70.3167 27.1834 70.3167H27.6834C27.8667 70.3167 28.0501 70.2667 28.2167 70.2333C28.4501 70.2 28.6667 70.1667 28.9 70.15C28.9501 70.15 29 70.15 29.0501 70.15L29.0834 70ZM33.6 52.75C32.9167 52.75 32.3667 52.4667 31.9334 52.2333C31.8167 52.1667 31.6834 52.1 31.5667 52.05C31.0167 51.8167 30.35 51.55 29.7667 50.9667C29.2167 50.4167 28.9334 49.8167 28.6834 49.1833L28.6 48.9667C28.3834 48.4833 28.1334 47.8667 28.1334 47.15C28.1334 47.0333 28.1334 46.9 28.1334 46.7667C28.1 46.25 28.0834 45.5833 28.3334 44.95C28.6 44.3 29.1 43.8333 29.4834 43.45L29.7167 43.2333C30.1 42.85 30.4 42.7 30.6834 42.5833C30.7612 42.55 30.8223 42.5111 30.8667 42.4667C31.1501 42.1833 31.3001 42.0667 31.4501 41.9333C31.5501 41.85 31.65 41.7667 31.8 41.6167C31.85 41.2333 31.95 40.7333 32.45 40.2333L33.4167 39.2833C33.7 39 33.85 38.8833 33.9834 38.75C34.1 38.65 34.2 38.5667 34.4 38.3667C34.7334 38.0333 34.9667 37.8833 35.2001 37.75C35.3167 37.6833 35.3667 37.6667 35.4834 37.5333C35.8501 37.1667 36.1334 37.0167 36.3334 36.9167C36.45 36.85 36.4834 36.8333 36.6 36.7333C36.85 36.4667 37.0001 36.35 37.1334 36.2333C37.2501 36.1333 37.3667 36.0333 37.5834 35.8C37.7667 35.6167 37.8334 35.5167 37.9167 35.4167C38.05 35.25 38.1834 35.0667 38.4834 34.7667C38.8167 34.4333 39.05 34.2833 39.3 34.15C39.4167 34.0833 39.4501 34.0667 39.5834 33.95L40.55 33C40.7667 32.7833 40.8667 32.6667 40.9667 32.55C41.1 32.4167 41.2167 32.2667 41.4834 32C41.6167 31.65 41.7667 31.25 42.2001 30.8C42.5 30.5 42.6667 30.3667 42.8334 30.25C42.9334 30.1667 43.0501 30.0833 43.2334 29.9C43.6501 29.4833 44.1334 29.3333 44.4667 29.2333C44.55 29.2 44.6334 29.1833 44.7167 29.15L44.9667 29.0167C45.3 28.8333 45.7001 28.6167 46.2334 28.5333C46.2834 28.5333 46.3501 28.4667 46.4334 28.4333C46.7834 28.2667 47.3167 28 47.9501 28.1C48.6667 28.2167 49.0834 28.7333 49.3334 29.0333C49.3834 29.1 49.4334 29.1667 49.4834 29.2167C49.4501 29.1833 49.5334 29.2 49.6167 29.2167C49.9667 29.3 50.4834 29.4333 50.9167 29.8667C51.3667 30.3167 51.6501 30.85 51.8667 31.2667C52.1334 31.7833 52.1334 32.2667 52.1334 32.6333C52.1334 32.7333 52.1334 32.8333 52.1334 32.9167C52.1334 33 52.1834 33.1 52.2167 33.1833C52.3334 33.5 52.5001 33.9833 52.4167 34.5667C52.3167 35.1833 52.1501 35.7167 51.9001 36.1833C51.6334 36.7 51.2334 36.9833 50.9334 37.1833C50.85 37.2333 50.7667 37.2833 50.7001 37.3667C50.7001 37.6167 50.6 38.1333 50.0834 38.65C49.65 39.0833 49.2667 39.2167 48.9501 39.3167C48.8612 39.3833 48.8 39.45 48.7667 39.5167C48.6501 39.8 48.5001 40.1167 48.1167 40.4833C47.7834 40.8167 47.55 40.9667 47.3167 41.1C47.2001 41.1667 47.15 41.2 47.0334 41.3167C46.85 41.5 46.7667 41.6 46.7001 41.7C46.5667 41.8667 46.4501 42.0333 46.1501 42.3333C45.7167 42.7667 45.3501 42.9 45.1334 42.9833L45.0667 42.9333C45.0334 43.3167 44.9501 43.8833 44.4167 44.4167C43.9001 44.95 43.3667 45.0167 43.0834 45.0667C43.05 45.1 43.05 45.1 43 45.2167C42.8834 45.5 42.7334 45.8 42.35 46.1667C42.1 46.4167 41.9667 46.55 41.8334 46.6667C41.7167 46.7667 41.6 46.8833 41.3834 47.1C41.2667 47.2167 41.2334 47.2667 41.1667 47.3833C41.0334 47.6167 40.8834 47.8667 40.55 48.2C40.2167 48.5333 39.9667 48.6833 39.8 48.8C39.6834 48.8667 39.6334 48.9167 39.4834 49.05C39.1 49.4333 38.8001 49.5833 38.6167 49.6833C38.5 49.75 38.4667 49.75 38.3667 49.8667C38.0667 50.1667 37.9 50.3 37.7334 50.4167C37.6334 50.5 37.5334 50.5833 37.35 50.75C36.85 51.25 36.3334 51.6 35.6667 51.8667C35.6 51.9 35.4501 52 35.3334 52.0833C34.9501 52.35 34.4167 52.7333 33.6834 52.7333L33.6 52.75ZM34.25 41.95C34.2 42.3333 34.1 42.8333 33.6 43.3333C33.3167 43.6167 33.1667 43.7333 33.0167 43.8667C32.9 43.95 32.8 44.05 32.6 44.25C32.2167 44.6333 31.9167 44.7833 31.6334 44.9C31.5556 44.9333 31.5 44.9722 31.4667 45.0167L31.2 45.2833C30.9834 45.4833 30.6834 45.7667 30.6167 45.9333C30.5667 46.05 30.5834 46.4333 30.6 46.6667C30.6 46.8333 30.6 47 30.6 47.1667C30.6 47.3833 30.7334 47.6833 30.8667 48.0167L30.9667 48.25C31.1334 48.6667 31.3 49.0167 31.5167 49.2333C31.7334 49.45 32.0834 49.6 32.4834 49.7667C32.7 49.85 32.9001 49.95 33.1 50.0667C33.2667 50.15 33.5 50.2833 33.5834 50.3C33.5334 50.3 33.6834 50.1833 33.7834 50.1C34 49.95 34.2667 49.7667 34.5834 49.6333C34.9334 49.4833 35.1667 49.3333 35.4501 49.05C35.75 48.75 35.9167 48.6167 36.0834 48.5C36.1834 48.4167 36.2834 48.3333 36.4667 48.15C36.85 47.7667 37.15 47.6167 37.3334 47.5167C37.45 47.45 37.4834 47.45 37.5834 47.3333C37.9167 47 38.1667 46.85 38.3334 46.7333C38.4501 46.6667 38.5001 46.6167 38.6501 46.4833C38.7667 46.3667 38.8 46.3167 38.8667 46.2C39 45.9667 39.1501 45.7167 39.4834 45.3833C39.7334 45.1333 39.8667 45 40 44.8833C40.1167 44.7833 40.2334 44.6667 40.4501 44.45C40.5167 44.3667 40.5334 44.3667 40.5834 44.25C40.7001 43.9667 40.85 43.6667 41.2334 43.3C41.7001 42.8333 42.1667 42.7167 42.4667 42.6667C42.5167 42.3 42.6334 41.8167 43.1001 41.35C43.5334 40.9167 43.9 40.7833 44.1167 40.7L45.1501 41.5L44.2667 40.6167C44.4501 40.4333 44.5334 40.3333 44.6001 40.2333C44.7334 40.0667 44.8501 39.9 45.1501 39.6C45.4834 39.2667 45.7167 39.1167 45.9501 38.9833C46.0667 38.9167 46.1167 38.8833 46.2334 38.7667C46.2334 38.7667 46.2723 38.7111 46.35 38.6C46.4667 38.3167 46.6167 38 47 37.6333C47.4334 37.2 47.8167 37.0667 48.1334 36.9667C48.2167 36.6833 48.3167 36.1667 48.8334 35.65C49.0167 35.4667 49.2167 35.3167 49.4167 35.1833C49.4834 35.1333 49.5667 35.0833 49.6334 35.0333C49.7001 34.8667 49.8 34.5833 49.8501 34.2333C49.8501 34.2333 49.8001 34.15 49.7667 34.0667C49.6834 33.8333 49.6167 33.6 49.5667 33.3667C49.5334 33.15 49.5334 32.9333 49.5334 32.7167C49.5334 32.6167 49.5334 32.4833 49.5334 32.4333C49.4 32.1833 49.2667 31.9333 49.1167 31.75C49.05 31.7333 48.9834 31.7167 48.9167 31.7C48.7001 31.65 48.4334 31.5833 48.1667 31.4333C47.8 31.25 47.5667 30.9833 47.3834 30.75C47.1501 30.8667 46.8667 30.9833 46.5334 31.05C46.4334 31.05 46.2834 31.15 46.0834 31.25L45.7667 31.4167C45.5667 31.5167 45.35 31.6 45.1167 31.6667C45.0334 31.7 44.9001 31.7333 44.8667 31.75C44.6167 32.0167 44.4501 32.1333 44.2834 32.2667C44.1834 32.35 44.0667 32.4333 43.8834 32.6167C43.75 32.9667 43.6 33.3667 43.1667 33.8167C42.9501 34.0333 42.85 34.15 42.75 34.2667C42.6167 34.4 42.5 34.55 42.2334 34.8167L41.2667 35.7667C40.9334 36.1 40.7001 36.25 40.4501 36.3833C40.3334 36.45 40.3 36.4667 40.1667 36.5833C39.9834 36.7667 39.9167 36.8667 39.8334 36.9667C39.7 37.1333 39.5667 37.3167 39.2667 37.6167C39.0167 37.8833 38.8667 38 38.7334 38.1167C38.6167 38.2167 38.5 38.3167 38.2834 38.55C37.9167 38.9167 37.6334 39.0667 37.4334 39.1667C37.3167 39.2333 37.2834 39.25 37.1667 39.35C36.8334 39.6833 36.6 39.8333 36.3667 39.9667C36.25 40.0333 36.2 40.05 36.0834 40.1833C35.8 40.4667 35.6667 40.5833 35.5167 40.7167C35.4 40.8167 35.3 40.9 35.1 41.1L34.2001 41.9833L34.25 41.95ZM44.0334 42.2167L44.9167 43.1C44.9167 43.1 44.9834 43.0167 45 42.9667L44.0334 42.2333V42.2167ZM55.3834 51.0667C54.55 51.0667 53.7667 50.8167 53.2501 50.6C52.6167 50.3333 52.2334 49.85 51.9501 49.4833C51.8667 49.3667 51.7834 49.2667 51.6834 49.1667C51.3334 48.8167 50.9667 48.4167 50.6834 47.8667C50.6501 47.8333 50.5834 47.7833 50.5334 47.7167C50.25 47.4333 49.8334 47.0167 49.7334 46.3667C49.6501 45.8167 49.75 45.3 49.8334 44.8833L49.8834 44.5833C49.9501 44.15 50.05 43.4667 50.35 42.8833C50.6667 42.25 51.1501 41.7167 51.4167 41.4667C51.7167 41.1667 51.8834 41.05 52.05 40.9167C52.1501 40.8333 52.25 40.7667 52.4334 40.5833C52.7334 40.2833 52.9167 40.15 53.1001 40.0167C53.2001 39.95 53.3001 39.8833 53.4667 39.7167C53.8001 39.3833 54.0334 39.2333 54.2001 39.1167C54.3167 39.05 54.3667 39 54.5167 38.8667C54.6834 38.45 54.8167 38.1 55.2334 37.7C55.5167 37.4167 55.6667 37.2833 55.8334 37.1667C55.9334 37.0833 56.0334 37 56.2334 36.8167C56.6501 36.4 57.0167 36.2667 57.3167 36.1667C57.5 36.0333 57.5167 36 57.5667 35.9C57.7001 35.65 57.8501 35.3833 58.1834 35.0333C58.4667 34.75 58.6167 34.6333 58.7667 34.5C58.8667 34.4167 58.9834 34.3167 59.1834 34.1333C59.25 34.0667 59.3501 33.9 59.4334 33.75C59.55 33.55 59.6834 33.3333 59.8167 33.15C59.8834 33.0667 59.9501 32.9 60.0334 32.7333C60.1167 32.5333 60.2167 32.3333 60.3167 32.1333C60.5 31.8 60.75 31.5667 60.9501 31.3833C61.0167 31.3167 61.0834 31.2667 61.1334 31.2C61.0834 31.2333 61.0834 31.1333 61.0834 31.05C61.0834 30.7833 61.0667 30.45 61.1667 30.0667C61.2167 29.8667 61.2834 29.6667 61.3501 29.4833C61.4167 29.2833 61.4834 29.1167 61.5001 28.9833C61.5501 28.65 61.6501 28.3667 61.7334 28.15C61.7667 28.05 61.8334 27.9 61.8334 27.8333C61.8334 27.5833 61.7834 27.3333 61.75 27.0667L61.6667 26.4333C61.6334 26.1333 61.6001 25.8167 61.5167 25.5333C61.4667 25.3167 61.4167 25.1 61.3834 24.8667C61.3501 24.6667 61.3167 24.4667 61.2834 24.3667C61.2834 24.4333 61.2334 24.3833 61.1667 24.3333C60.9334 24.15 60.6167 23.9 60.3834 23.5167C60.2667 23.3 60.1667 23.0667 60.0667 22.8333C60.0167 22.7 59.9501 22.5167 59.9 22.4667C59.7001 22.2 59.5667 21.9333 59.4667 21.7167C59.4167 21.6167 59.3501 21.45 59.3001 21.4167C59.2667 21.4 59.1167 21.3167 59.0167 21.2667C58.8 21.1667 58.5167 21.0333 58.2667 20.8333C58.1167 20.7167 57.9667 20.6 57.8334 20.4667C57.6834 20.3333 57.5334 20.2 57.3667 20.1C56.9667 19.8667 56.6667 19.6833 56.3334 19.55C56.3 19.55 56.2 19.55 56.1167 19.55C55.85 19.55 55.5167 19.55 55.1501 19.4667C54.7834 19.3667 54.5001 19.2 54.2667 19.05C54.1834 19 54.1167 18.95 54.0167 18.9167C53.8834 18.9167 53.6667 18.9167 53.4667 18.9333C53.2834 18.9333 53.0834 18.95 52.9001 18.95C52.8667 18.95 52.8 19.0167 52.7167 19.05C52.4667 19.1667 52.1667 19.3 51.7834 19.35L51.5501 19.3833C51.25 19.4167 50.9667 19.45 50.6667 19.5333C50.1834 19.6667 49.7667 19.5833 49.4501 19.5167C49.4001 19.5167 49.3501 19.5 49.3 19.4833C48.9834 19.6167 48.6667 19.7833 48.3667 19.95C48.4334 19.9333 48.3667 20 48.3334 20.0833C48.1834 20.3333 47.9834 20.6833 47.6334 20.95C47.4167 21.1167 47.1667 21.25 46.9167 21.3667C46.8167 21.4167 46.65 21.5 46.6167 21.5333C46.5 21.9333 46.3667 22.3167 45.9334 22.7333C45.7167 22.95 45.6167 23.0667 45.5167 23.1667C45.4001 23.3 45.2667 23.4333 45.0167 23.7C44.5167 24.2 43.9667 24.3 43.6501 24.3333C43.6001 24.6167 43.4667 25.05 43.0167 25.5C42.8667 25.65 42.8 25.75 42.7334 25.8333C42.6 26.0167 42.4834 26.2167 42.1667 26.5333C41.8 26.9 41.4834 27.05 41.2167 27.1667C41.15 27.2 41.0945 27.2389 41.05 27.2833C40.7667 27.5667 40.6001 27.7 40.4334 27.8333C40.3334 27.9167 40.2334 27.9833 40.0501 28.1667C39.9001 28.5667 39.7667 28.9333 39.35 29.35C39.0834 29.6167 38.5334 30.1167 37.9167 30.4333C37.4167 30.6833 36.7834 30.8833 36.2 30.9833C35.6667 31.0667 35.1667 30.95 34.7667 30.8667C34.6501 30.8333 34.55 30.8167 34.4501 30.8C33.85 30.7167 33.2834 30.6167 32.75 30.35C32.1667 30.05 31.6667 29.6167 31.35 29.2833C30.85 28.7833 30.6167 28.1667 30.4334 27.6833L30.3167 27.3833C30.0501 26.75 30.0667 26.1333 30.0834 25.6333V25.3167C30.0834 24.5667 30.2667 23.9833 30.5334 23.3333C30.7834 22.7167 31.1 22.2333 31.6 21.7333C31.65 21.35 31.75 20.85 32.25 20.35C32.5334 20.0667 32.6667 19.95 32.8167 19.8167C32.9167 19.7333 33.0334 19.6333 33.2334 19.4333C33.6501 19.0167 34 18.8833 34.2001 18.7833C34.2667 18.75 34.3223 18.7167 34.3667 18.6833C34.7334 18.3167 35.0167 18.1667 35.2001 18.0667C35.3167 18 35.35 17.9833 35.4501 17.8833C35.5334 17.8 35.5334 17.8 35.5834 17.6833C35.7001 17.4167 35.85 17.1333 36.2167 16.7833C36.35 16.65 36.3834 16.6 36.4501 16.4833C36.5834 16.2667 36.7334 16.05 37.05 15.7333C37.35 15.4333 37.5167 15.3167 37.6834 15.1833C37.7834 15.1167 37.8834 15.0333 38.05 14.8667C38.2167 14.7 38.2834 14.6 38.3667 14.5C38.5 14.3333 38.6167 14.15 38.9334 13.85C39.2667 13.5167 39.65 13.35 39.9334 13.2333C40.0167 13.2 40.1167 13.1667 40.1834 13.1167C40.1334 13.15 40.1667 13.0667 40.1834 13C40.3167 12.6833 40.5167 12.2333 40.9667 11.8833C41.35 11.6 41.75 11.3167 42.1334 11.0667C42.4001 10.9 42.6834 10.75 42.9834 10.6167C43.1167 10.55 43.2667 10.4833 43.4001 10.4167C43.7501 10.2167 44.1167 10.1333 44.4167 10.0667C44.55 10.0333 44.7001 10 44.7667 9.96667C45.1001 9.81667 45.4501 9.73334 45.7167 9.68334C45.8501 9.65 45.9834 9.63334 46.1167 9.58334C46.2334 9.53334 46.3501 9.46667 46.4501 9.4C46.7001 9.25 47 9.06667 47.3834 8.96667C47.7334 8.86667 48.1001 8.78334 48.4667 8.7L48.75 8.63334C48.75 8.63334 48.9501 8.55 49.0334 8.5C49.3167 8.36667 49.65 8.18334 50.0834 8.13334C50.65 8.05 51.1334 8.26667 51.4501 8.4C51.4667 8.4 51.4834 8.4 51.5 8.41667C51.5 8.41667 51.5334 8.4 51.5501 8.38334C51.8501 8.18334 52.3167 7.86667 52.9167 7.86667C53.3834 7.86667 53.7667 8.01667 54.0501 8.11667C54.1501 8.15 54.2334 8.2 54.3334 8.21667C54.75 8.25 55.2667 8.21667 55.7167 8.26667C56.1001 8.31667 56.4334 8.45 56.7001 8.55C56.8167 8.6 56.9501 8.65 57.0667 8.68334C57.1167 8.68334 57.2667 8.68334 57.3667 8.68334C57.6667 8.68334 58.0667 8.65 58.5 8.76667C58.9834 8.9 59.3167 9.2 59.5667 9.41667C59.6167 9.45 59.6501 9.5 59.7001 9.53334C59.75 9.53334 59.8 9.53334 59.8501 9.53334C60.1834 9.5 60.7001 9.45 61.2167 9.68334C61.6167 9.86667 61.9167 10.15 62.1334 10.3667C62.2001 10.4333 62.3167 10.55 62.3501 10.5667C62.7834 10.8 63.1834 11.0167 63.5667 11.2667C63.6167 11.2833 63.7501 11.3333 63.8501 11.3667C64.1501 11.4667 64.5167 11.5833 64.8834 11.85C65.2167 12.1 65.4501 12.4167 65.6167 12.6667C65.6834 12.7667 65.7834 12.9 65.8334 12.9333C66.0667 13.1333 66.2834 13.3667 66.5001 13.6167C66.6001 13.7333 66.7001 13.8333 66.8001 13.95C66.9001 14.05 67.0167 14.1167 67.1167 14.2C67.3501 14.3667 67.6334 14.5667 67.8834 14.85C67.9834 14.9667 68.0834 15.0833 68.2 15.1833C68.4167 15.4167 68.6501 15.65 68.8334 15.9C68.9167 16.0167 69.0167 16.1333 69.1167 16.25C69.3167 16.5 69.5334 16.75 69.7001 17.0167C69.9501 17.4167 70.0334 17.8333 70.1001 18.15C70.1167 18.25 70.1334 18.3333 70.1667 18.4167C70.3667 18.7833 70.4334 19.15 70.4834 19.45C70.5001 19.55 70.5334 19.7167 70.5501 19.75L70.7334 20.1167C70.8667 20.4167 71.0167 20.7 71.1334 21.0167C71.3001 21.45 71.4501 21.8833 71.5667 22.3333C71.6 22.4667 71.6667 22.6167 71.7167 22.75C71.8334 23.05 71.9334 23.3333 72.0001 23.65C72.0001 23.7 72.0834 23.85 72.1334 23.95C72.2667 24.2167 72.4334 24.5667 72.5001 25C72.5167 25.1333 72.5667 25.2667 72.6001 25.4167C72.6834 25.7 72.7667 26.0167 72.8 26.4C72.8334 26.7667 72.8167 27.1667 72.8167 27.5333V27.8167C72.8167 28.2833 72.6667 28.6667 72.55 28.9667C72.5167 29.05 72.4667 29.15 72.4501 29.2333C72.4501 29.3667 72.4501 29.5167 72.4501 29.6833C72.4501 30 72.4501 30.3167 72.4 30.6333C72.3834 30.7667 72.3834 30.9167 72.3834 31.0667C72.3834 31.4 72.3667 31.7333 72.3001 32.05C72.2334 32.3667 72.1167 32.6667 71.9834 32.9667C71.9334 33.1 71.8667 33.2333 71.8334 33.3833C71.8 33.5 71.8 33.6333 71.7834 33.7667C71.75 34.05 71.7167 34.4167 71.5834 34.8C71.3667 35.3667 70.9167 35.6833 70.6167 35.9C70.6667 36.2667 70.7334 36.8333 70.4334 37.3833C70.2167 37.7667 69.9334 38.0333 69.7001 38.25C69.6167 38.3167 69.5001 38.4333 69.4667 38.4667C69.4501 38.5 69.4001 38.65 69.3667 38.75C69.2667 39.05 69.1501 39.4167 68.8834 39.7667C68.5667 40.1833 68.1501 40.4 67.85 40.5333C67.7667 40.5667 67.7001 40.6 67.6334 40.65C67.6334 40.65 67.6 40.7667 67.55 40.8667C67.4167 41.1333 67.25 41.5 66.9334 41.8167C66.8001 41.95 66.7667 42 66.7001 42.1167C66.5834 42.3 66.4334 42.5333 66.1001 42.8667C65.75 43.2167 65.4834 43.3667 65.2334 43.4833C65.1167 43.55 65.1001 43.55 65 43.65C64.8834 43.7667 64.85 43.8167 64.7834 43.9333C64.6501 44.1667 64.5 44.4 64.1667 44.7333C63.7334 45.1667 63.3501 45.3 63.0167 45.3833C62.8001 45.5667 62.7334 45.6667 62.6667 45.75C62.5334 45.9333 62.4167 46.1167 62.1 46.4167C61.9 46.6167 61.8167 46.7167 61.7167 46.8333C61.6 46.9833 61.4667 47.1167 61.2001 47.4C60.9501 47.65 60.8167 47.7667 60.7 47.8833C60.5834 47.9833 60.4667 48.1 60.2501 48.3167C59.9834 48.5833 59.8334 48.7167 59.6834 48.8333C59.5667 48.9333 59.4667 49.0167 59.2667 49.2167C59.1667 49.3167 59.0834 49.4333 58.9834 49.5333C58.6667 49.9167 58.2667 50.4 57.6334 50.6667C56.9167 50.9667 56.0834 51 55.4501 51L55.3834 51.0667ZM52.1834 45.85C52.1834 45.85 52.2501 45.9167 52.2834 45.95C52.4834 46.15 52.7167 46.3833 52.9001 46.7333C53.0167 46.95 53.1834 47.1333 53.4501 47.4C53.6167 47.5667 53.7667 47.75 53.9167 47.9333C54.0167 48.0667 54.1667 48.25 54.2334 48.3C54.6334 48.4667 55.0667 48.5667 55.3834 48.5667C55.6 48.5667 56.2501 48.5667 56.6167 48.4167C56.6834 48.3667 56.8834 48.15 57.0001 48C57.1501 47.8333 57.2834 47.65 57.4334 47.5C57.7001 47.2333 57.85 47.1 58 46.9833C58.1 46.8833 58.2167 46.8 58.4167 46.6C58.6667 46.35 58.7834 46.2333 58.9167 46.1167C59.0334 46.0167 59.15 45.9 59.3667 45.6833C59.5667 45.4833 59.6667 45.3667 59.75 45.2667C59.8667 45.1167 60 44.9833 60.2667 44.7C60.4334 44.5333 60.5 44.45 60.5667 44.35C60.7001 44.1667 60.8167 43.9833 61.1334 43.6833C61.5667 43.25 61.9501 43.1167 62.2834 43.0333C62.4667 42.8833 62.4834 42.85 62.55 42.7333C62.6834 42.5 62.8334 42.2667 63.1667 41.9333C63.5167 41.5833 63.7834 41.4333 64.0334 41.3C64.15 41.2333 64.1667 41.2333 64.2667 41.1333C64.4001 41 64.4334 40.95 64.5167 40.8167C64.6167 40.65 64.7667 40.4 65.1167 40.0667C65.1334 40.0333 65.2001 39.9 65.2501 39.8167C65.3667 39.5667 65.5001 39.2667 65.7501 38.9833C66.0501 38.6333 66.4334 38.45 66.7001 38.3167C66.7667 38.2833 66.8501 38.25 66.9001 38.2167C66.8501 38.2333 66.9001 38.1 66.9334 38C67.0167 37.75 67.1167 37.4333 67.3167 37.1167C67.5167 36.8 67.7667 36.5833 67.9667 36.4C68 36.3667 68.0501 36.3167 68.1001 36.2833C68.1001 36.25 68.1001 36.2333 68.1001 36.2167C68.0667 35.8833 68 35.3667 68.2334 34.85C68.4667 34.35 68.8834 34.0667 69.1501 33.8667C69.1834 33.85 69.2167 33.8333 69.2334 33.8C69.2334 33.7167 69.2501 33.6167 69.2667 33.5333C69.3001 33.25 69.3334 32.95 69.4001 32.6833C69.4667 32.4667 69.5501 32.2333 69.6501 32.0167C69.7167 31.85 69.7834 31.7 69.8334 31.5333C69.8667 31.3667 69.8667 31.2 69.8667 31.0333C69.8667 30.7833 69.8667 30.55 69.9167 30.3C69.9501 30.0833 69.9501 29.8833 69.9501 29.6667C69.9501 29.4667 69.9501 29.2667 69.9667 29.0667C70 28.6667 70.1167 28.35 70.2167 28.0833C70.2501 28 70.3 27.85 70.3167 27.8V27.5333C70.3167 27.2167 70.3167 26.8833 70.3167 26.5833C70.3167 26.4833 70.25 26.3 70.2001 26.1167C70.1334 25.8667 70.0667 25.6167 70.0334 25.3667C70.0334 25.3167 69.9501 25.1667 69.9 25.0667C69.7834 24.8333 69.6501 24.55 69.5667 24.2C69.5334 24.0167 69.4501 23.85 69.3834 23.6667C69.3001 23.4667 69.2334 23.2667 69.1667 23.05C69.0501 22.65 68.9167 22.2833 68.7834 21.9C68.7001 21.6667 68.5834 21.45 68.4834 21.2333L68.2834 20.8C68.1334 20.4833 68.0834 20.1667 68.0334 19.9C68.0167 19.8 67.9834 19.6333 67.9667 19.6C67.7667 19.25 67.7001 18.9 67.6501 18.6167C67.6334 18.5167 67.6167 18.4333 67.5834 18.3333C67.4834 18.2 67.3501 18.0333 67.2001 17.8667C67.0667 17.7167 66.9501 17.5667 66.8334 17.4C66.7001 17.2167 66.5501 17.0667 66.3834 16.9C66.2501 16.7667 66.1167 16.6167 66 16.4833C65.9334 16.4167 65.8001 16.3167 65.6667 16.2167C65.4501 16.05 65.2334 15.9 65.0334 15.7C64.9001 15.5667 64.7667 15.4333 64.6501 15.2833C64.5001 15.1167 64.35 14.95 64.1834 14.8C63.9167 14.5667 63.7334 14.3167 63.5834 14.1C63.5167 14 63.4167 13.8667 63.3667 13.8333C63.3334 13.8333 63.1834 13.7667 63.0834 13.75C62.8334 13.6667 62.5001 13.5667 62.1834 13.3667C61.8501 13.15 61.5167 12.9667 61.1667 12.7833C60.7834 12.5667 60.55 12.3333 60.35 12.15C60.3 12.1 60.25 12.05 60.2001 12C60.15 12 60.1167 12 60.0667 12C59.7334 12.0333 59.3 12.0833 58.8334 11.9C58.4167 11.75 58.1334 11.4833 57.9167 11.3C57.8501 11.25 57.7834 11.1833 57.7167 11.1333C57.7667 11.1667 57.6001 11.1667 57.5 11.1667C57.2334 11.1667 56.9 11.2 56.5334 11.1167C56.2667 11.0667 56.0167 10.9667 55.7667 10.8667C55.6167 10.8 55.4501 10.75 55.3667 10.7333C55.1834 10.7 54.9834 10.7167 54.8001 10.7167C54.5667 10.7167 54.3667 10.7167 54.1501 10.7167C53.7501 10.6833 53.4334 10.5667 53.1667 10.4667C53.1167 10.45 53.0667 10.4333 53.0167 10.4167C53 10.4167 52.9667 10.45 52.9501 10.4667C52.6667 10.6667 52.2501 10.9333 51.7167 10.9667C51.2001 11 50.7834 10.8167 50.4667 10.6833C50.4334 10.6833 50.4 10.65 50.35 10.6333C50.2834 10.6667 50.2167 10.7 50.1501 10.7333C49.9167 10.85 49.6167 11 49.2667 11.0833L48.9667 11.15C48.6667 11.2167 48.3667 11.2833 48.0667 11.3667C47.9834 11.3833 47.85 11.4833 47.7167 11.55C47.4834 11.7 47.2334 11.8333 46.9834 11.9167C46.7334 12 46.4834 12.0667 46.2334 12.1167C46.05 12.15 45.9001 12.1833 45.8 12.2333C45.5 12.3667 45.2001 12.4333 44.9501 12.5C44.8334 12.5333 44.6501 12.5667 44.6001 12.6C44.4167 12.7 44.2167 12.7833 44.0334 12.8833C43.8501 12.9667 43.6501 13.05 43.4834 13.1667C43.1334 13.3833 42.7834 13.6333 42.4667 13.8833C42.5334 13.8333 42.5167 13.9167 42.4667 13.9833C42.3334 14.2833 42.1667 14.6833 41.7834 15.0167C41.4834 15.2833 41.1667 15.4167 40.9001 15.5333C40.8167 15.5667 40.7167 15.6 40.65 15.65C40.5167 15.8 40.4334 15.9 40.3667 15.9833C40.2334 16.15 40.1167 16.3333 39.8 16.6333C39.5 16.9333 39.3334 17.05 39.1667 17.1833C39.0667 17.25 38.9667 17.3333 38.8001 17.5C38.6667 17.6333 38.6334 17.6833 38.5667 17.8C38.4334 18.0167 38.2834 18.2333 37.9667 18.55C37.8834 18.6333 37.8834 18.6333 37.8334 18.75C37.7167 19.0167 37.5667 19.3 37.2 19.65C36.8334 20.0167 36.55 20.1667 36.3667 20.2667C36.25 20.3333 36.2167 20.35 36.1167 20.45C35.7001 20.8667 35.35 21 35.15 21.1C35.0834 21.1333 35.0278 21.1667 34.9834 21.2C34.7 21.4833 34.5667 21.6 34.4167 21.7333C34.3167 21.8167 34.2334 21.9 34.0667 22.05C34.0167 22.4333 33.9167 22.9333 33.4167 23.4333C33.1167 23.7333 32.9667 23.9667 32.8334 24.2833C32.6667 24.7 32.5834 24.9667 32.5834 25.3V25.7C32.5667 26 32.55 26.2667 32.6167 26.4167L32.7667 26.8C32.8667 27.0833 32.9834 27.4 33.1167 27.5167C33.3834 27.7833 33.6667 28 33.8834 28.1167C34.05 28.2 34.4 28.25 34.6834 28.3C34.9834 28.35 35.1501 28.3833 35.3167 28.4167C35.4834 28.45 35.7334 28.5167 35.8167 28.5C36.1334 28.45 36.5167 28.3333 36.7834 28.2C37 28.1 37.3 27.85 37.5834 27.5833C37.7334 27.1833 37.8667 26.8167 38.2834 26.4C38.5667 26.1167 38.7334 25.9833 38.9 25.85C39 25.7667 39.1 25.7 39.2834 25.5167C39.65 25.15 39.9667 25 40.2334 24.8833C40.3 24.85 40.3556 24.8111 40.4001 24.7667C40.55 24.6167 40.6167 24.5167 40.6834 24.4333C40.8167 24.25 40.9334 24.05 41.25 23.7333C41.2834 23.4667 41.3834 22.9833 41.8834 22.4833C42.4334 21.9333 43.0167 21.8833 43.3167 21.85C43.4834 21.6833 43.5667 21.5833 43.6501 21.5C43.7667 21.3667 43.9001 21.2333 44.1501 20.9667C44.2834 20.5667 44.4167 20.1833 44.8334 19.7667C45.1501 19.45 45.5167 19.2667 45.8 19.1333C45.9001 19.0833 46.0167 19.0333 46.1 18.9667C46.1 18.95 46.15 18.8667 46.2001 18.8C46.3834 18.5 46.6334 18.0833 47.1167 17.8C47.5501 17.55 48.0167 17.3167 48.4667 17.1333C49.0167 16.9 49.5667 17 49.9167 17.0667C50.0001 17.0667 50.0667 17.1 50.1501 17.1C50.4334 17.0167 50.8334 16.95 51.25 16.9L51.4667 16.8667C51.4667 16.8667 51.6167 16.8 51.6834 16.7667C52.0667 16.6 52.6501 16.4667 53.3167 16.4333C53.6834 16.4167 54.05 16.4 54.4001 16.4333C54.9001 16.5 55.2834 16.7333 55.5667 16.9C55.6501 16.95 55.7167 17 55.8 17.0333C55.8667 17.0333 55.9667 17.0333 56.0501 17.0333C56.3667 17.0333 56.8167 17.0167 57.2834 17.2C57.7001 17.3833 58.1167 17.6167 58.5167 17.85C58.9167 18.0833 59.1834 18.3167 59.4667 18.55C59.5667 18.6333 59.6667 18.7333 59.7834 18.8167C59.8334 18.85 59.9834 18.9167 60.0834 18.9667C60.3834 19.1 60.7501 19.2833 61.0834 19.6167C61.4167 19.95 61.5834 20.3167 61.7334 20.6167C61.7834 20.7167 61.8501 20.8667 61.8834 20.9167C62.1501 21.2667 62.2834 21.6167 62.4 21.9C62.4501 22.0167 62.4834 22.1333 62.55 22.2333C62.55 22.2333 62.6334 22.2667 62.7001 22.3333C62.9667 22.5333 63.3667 22.85 63.5834 23.3833C63.7334 23.7667 63.8001 24.15 63.8501 24.45C63.8667 24.5833 63.8834 24.7167 63.9167 24.85C64.0167 25.25 64.0834 25.6667 64.1334 26.1L64.2001 26.65C64.2667 27.0333 64.3167 27.4167 64.3167 27.8C64.3167 28.2667 64.1667 28.6667 64.0667 28.95C64.0334 29.05 63.9834 29.2 63.9667 29.25C63.9167 29.65 63.7834 30 63.6834 30.2833C63.6334 30.4 63.6001 30.5333 63.5501 30.6667C63.5501 30.7333 63.5501 30.8167 63.5501 30.9167C63.5501 31.25 63.5834 31.6833 63.3834 32.1667C63.1834 32.6333 62.8667 32.9333 62.6334 33.1667C62.5667 33.2333 62.5001 33.2833 62.4501 33.35C62.3834 33.45 62.35 33.5667 62.2834 33.6833C62.1667 33.95 62.0167 34.3 61.7667 34.6167C61.6834 34.7167 61.6334 34.8333 61.5667 34.95C61.4167 35.2167 61.2167 35.55 60.9167 35.8333C60.6334 36.1167 60.4834 36.2333 60.3334 36.3667C60.2334 36.45 60.1167 36.55 59.9334 36.7333C59.85 36.8333 59.8334 36.85 59.7667 36.9667C59.6334 37.2167 59.4834 37.4833 59.1501 37.8333C58.7334 38.25 58.3667 38.3833 58.0667 38.4833C57.6834 38.8167 57.5334 38.9333 57.3834 39.0667C57.2834 39.15 57.1834 39.2333 56.9834 39.4167C56.8167 39.8333 56.6834 40.1833 56.2667 40.5833C55.9334 40.9167 55.7001 41.0667 55.5334 41.1667C55.4167 41.2333 55.3667 41.2833 55.2167 41.4167C54.9167 41.7167 54.7334 41.85 54.55 41.9833C54.4501 42.05 54.35 42.1167 54.1834 42.2833C53.8834 42.5833 53.7167 42.7 53.5501 42.8333C53.4501 42.9167 53.35 42.9833 53.1667 43.1667C52.9001 43.4167 52.6834 43.7167 52.5667 43.95C52.4501 44.1833 52.3834 44.6167 52.3334 44.9L52.2667 45.2833C52.2334 45.4167 52.2001 45.6167 52.1834 45.7667V45.85Z" fill="#031F39"></path></svg> 